<?xml version="1.0" encoding="UTF-8" standalone="no"?>
<!-- Created with Inkscape (http://www.inkscape.org/) -->

<svg
   width="76.199997mm"
   height="76.200104mm"
   viewBox="0 0 76.199997 76.200104"
   version="1.1"
   id="svg1"
   xmlns="http://www.w3.org/2000/svg"
   xmlns:svg="http://www.w3.org/2000/svg">
  <defs
     id="defs1" />
  <g
     id="layer1"
     transform="translate(-86.518745,-170.92084)">
    <rect
       class="cls-2"
       x="86.518745"
       width="76.199997"
       height="76.200104"
       id="rect52"
       style="fill:#ffffff;stroke-width:0px"
       y="170.92084" />
    <rect
       class="cls-1"
       x="87.118752"
       y="171.52097"
       width="75"
       height="74.999847"
       id="rect53"
       style="fill:#002147;stroke-width:0px" />
    <path
       class="cls-2"
       d="m 95.307702,225.96694 c -1.013529,0 -1.744951,-0.84045 -1.744951,-2.02758 0,-1.21086 0.725684,-2.04532 1.773775,-2.04532 1.025139,0 1.739212,0.83446 1.739212,2.01585 0,1.22234 -0.719815,2.05706 -1.768036,2.05706 z m -0.0057,-3.62632 c -0.731422,0 -1.209429,0.62891 -1.209429,1.58701 0,0.9521 0.535654,1.58674 1.238252,1.58674 0.800547,0 1.215168,-0.69933 1.215168,-1.62222 0,-0.93436 -0.512569,-1.55153 -1.243991,-1.55153 z"
       id="path53"
       style="fill:#ffffff;stroke-width:0px" />
    <path
       class="cls-2"
       d="m 100.28366,225.89052 -0.96175,-1.62222 -0.956014,1.62222 h -0.547131 l 1.232513,-2.03359 -1.151911,-1.88646 h 0.581695 l 0.863933,1.48684 0.869535,-1.48684 h 0.5414 l -1.146045,1.88646 1.243995,2.03359 z"
       id="path54"
       style="fill:#ffffff;stroke-width:0px" />
    <path
       class="cls-2"
       d="m 102.4491,222.40531 v 1.23434 h 1.47432 v 0.4231 h -1.47432 v 1.82777 h -0.51257 v -3.92005 h 2.07897 v 0.43484 z"
       id="path55"
       style="fill:#ffffff;stroke-width:0px" />
    <path
       class="cls-2"
       d="m 106.76264,225.96694 c -1.01353,0 -1.74495,-0.84045 -1.74495,-2.02758 0,-1.21086 0.72568,-2.04532 1.77377,-2.04532 1.02514,0 1.73921,0.83446 1.73921,2.01585 0,1.22234 -0.71981,2.05706 -1.76803,2.05706 z m -0.006,-3.62632 c -0.73142,0 -1.20943,0.62891 -1.20943,1.58701 0,0.9521 0.53565,1.58674 1.23825,1.58674 0.80055,0 1.21517,-0.69933 1.21517,-1.62222 0,-0.93436 -0.51257,-1.55153 -1.24399,-1.55153 z"
       id="path56"
       style="fill:#ffffff;stroke-width:0px" />
    <path
       class="cls-2"
       d="m 111.8595,225.89052 -0.44344,-1.02253 c -0.26502,-0.60543 -0.39167,-0.65839 -0.90997,-0.65839 h -0.24194 v 1.68092 h -0.5067 v -3.92005 h 0.85232 c 0.51257,0 0.90984,-0.006 1.22091,0.31146 0.19003,0.19381 0.29945,0.45257 0.29945,0.7815 0,0.2705 -0.0749,0.49979 -0.23607,0.67613 -0.13825,0.15259 -0.36284,0.28197 -0.61625,0.31145 0.12664,0.006 0.25341,0.0822 0.32828,0.1586 0.11516,0.11764 0.19576,0.30571 0.29945,0.54647 l 0.49522,1.13444 z m -0.40888,-3.29714 c -0.20737,-0.21154 -0.47801,-0.20581 -0.78907,-0.20581 h -0.3974 v 1.40468 h 0.17855 c 0.36858,0 0.7429,0.0117 0.98484,-0.23503 0.1209,-0.12338 0.19003,-0.30571 0.19003,-0.49378 0,-0.21155 -0.0806,-0.38189 -0.16695,-0.47005 z"
       id="path57"
       style="fill:#ffffff;stroke-width:0px" />
    <path
       class="cls-2"
       d="m 116.08657,225.36151 c -0.48375,0.49379 -1.05383,0.52901 -1.76804,0.52901 h -0.84072 v -3.92005 h 0.84659 c 0.7429,0 1.30151,0.0292 1.76217,0.49953 0.33989,0.34667 0.54713,0.86393 0.54713,1.43389 0,0.59369 -0.19577,1.09922 -0.54713,1.45762 z m -0.3858,-2.59779 c -0.33402,-0.34067 -0.71408,-0.37015 -1.37637,-0.37015 h -0.33402 v 3.06785 h 0.47801 c 0.51244,0 0.92719,-0.0587 1.25546,-0.39962 0.25916,-0.27024 0.3858,-0.6936 0.3858,-1.16965 0,-0.39962 -0.0863,-0.79924 -0.40888,-1.12843 z"
       id="path58"
       style="fill:#ffffff;stroke-width:0px" />
    <path
       class="cls-2"
       d="m 95.831879,232.94258 -0.443445,-1.02253 c -0.265022,-0.60543 -0.391665,-0.65839 -0.909973,-0.65839 h -0.241938 v 1.68092 h -0.506701 v -3.92004 h 0.852326 c 0.51257,0 0.909842,-0.006 1.220904,0.31145 0.190029,0.19381 0.299456,0.45257 0.299456,0.7815 0,0.2705 -0.07486,0.49979 -0.236069,0.67613 -0.13825,0.15259 -0.362842,0.28197 -0.616257,0.31145 0.126642,0.006 0.253415,0.0822 0.328279,0.1586 0.115165,0.11764 0.195768,0.30571 0.299455,0.54648 l 0.495223,1.13443 h -0.541263 z m -0.408882,-3.29714 c -0.207375,-0.21155 -0.478007,-0.20581 -0.78907,-0.20581 h -0.397404 v 1.40468 h 0.178552 c 0.36858,0 0.742899,0.0117 0.984837,-0.23503 0.120904,-0.12338 0.190029,-0.30571 0.190029,-0.49379 0,-0.21154 -0.0806,-0.38188 -0.166944,-0.47005 z"
       id="path59"
       style="fill:#ffffff;stroke-width:0px" />
    <path
       class="cls-2"
       d="m 97.450187,232.94258 v -3.92004 h 2.125009 v 0.43483 h -1.618308 v 1.23434 h 1.520491 v 0.4231 h -1.520491 v 1.38119 h 1.66448 v 0.44658 h -2.171179 z"
       id="path60"
       style="fill:#ffffff;stroke-width:0px" />
    <path
       class="cls-2"
       d="m 101.80402,233.02474 c -0.67964,0 -1.13456,-0.37614 -1.1806,-0.42309 l 0.24754,-0.36441 c 0.0691,0.0472 0.44345,0.33519 0.90998,0.33519 0.47227,0 0.74864,-0.28798 0.74864,-0.64664 0,-0.4291 -0.48949,-0.64065 -0.90411,-0.8462 -0.48948,-0.24102 -0.89262,-0.49979 -0.89262,-1.07574 0,-0.62291 0.49522,-1.05774 1.20355,-1.05774 0.70847,0 1.0597,0.3584 1.09427,0.39962 l -0.25916,0.34093 c -0.046,-0.0412 -0.35136,-0.29398 -0.80054,-0.29398 -0.42036,0 -0.71982,0.21155 -0.71982,0.56422 0,0.3704 0.33976,0.48778 0.71982,0.68759 0.33988,0.17634 1.09426,0.46432 1.09426,1.23434 0,0.64639 -0.46653,1.14591 -1.26121,1.14591 z"
       id="path61"
       style="fill:#ffffff;stroke-width:0px" />
    <path
       class="cls-2"
       d="m 104.32083,232.94258 v -3.92004 h 2.12501 v 0.43483 h -1.61831 v 1.23434 h 1.52049 v 0.4231 h -1.52049 v 1.38119 h 1.66448 v 0.44658 z"
       id="path62"
       style="fill:#ffffff;stroke-width:0px" />
    <path
       class="cls-2"
       d="m 110.19489,232.94258 -0.35123,-1.02253 h -1.58375 l -0.35136,1.02253 h -0.51831 l 1.39372,-3.92004 h 0.54713 l 1.40519,3.92004 z m -1.14604,-3.36183 -0.64495,1.9102 h 1.29577 z"
       id="path63"
       style="fill:#ffffff;stroke-width:0px" />
    <path
       class="cls-2"
       d="m 113.84052,232.94258 -0.44344,-1.02253 c -0.26502,-0.60543 -0.39167,-0.65839 -0.90997,-0.65839 h -0.24194 v 1.68092 h -0.5067 v -3.92004 h 0.85232 c 0.51257,0 0.90984,-0.006 1.22091,0.31145 0.19003,0.19381 0.29945,0.45257 0.29945,0.7815 0,0.2705 -0.0749,0.49979 -0.23607,0.67613 -0.13825,0.15259 -0.36284,0.28197 -0.61625,0.31145 0.12664,0.006 0.25341,0.0822 0.32828,0.1586 0.11516,0.11764 0.19576,0.30571 0.29945,0.54648 l 0.49522,1.13443 z m -0.40888,-3.29714 c -0.20737,-0.21155 -0.47801,-0.20581 -0.78907,-0.20581 h -0.3974 v 1.40468 h 0.17855 c 0.36858,0 0.7429,0.0117 0.98484,-0.23503 0.1209,-0.12338 0.19003,-0.30571 0.19003,-0.49379 0,-0.21154 -0.0806,-0.38188 -0.16695,-0.47005 z"
       id="path64"
       style="fill:#ffffff;stroke-width:0px" />
    <path
       class="cls-2"
       d="m 117.10596,233.01901 c -1.03087,0 -1.8429,-0.74055 -1.8429,-2.00411 0,-1.31077 0.85807,-2.0748 1.91777,-2.0748 0.76024,0 1.13456,0.31746 1.1806,0.36441 l -0.22459,0.36441 c -0.046,-0.0295 -0.3858,-0.26451 -0.92719,-0.26451 -0.7832,0 -1.4168,0.58196 -1.4168,1.56327 0,0.9581 0.52991,1.58101 1.3765,1.58101 0.55287,0 0.96175,-0.28198 1.00205,-0.30545 l 0.22459,0.3644 c -0.0403,0.047 -0.51256,0.41136 -1.29002,0.41136 z"
       id="path65"
       style="fill:#ffffff;stroke-width:0px" />
    <path
       class="cls-2"
       d="m 121.74217,232.94258 v -1.82777 h -1.7623 v 1.82777 h -0.51831 v -3.92004 h 0.51831 v 1.64543 h 1.7623 v -1.64543 h 0.51831 v 3.92004 z"
       id="path66"
       style="fill:#ffffff;stroke-width:0px" />
    <path
       class="cls-2"
       d="m 126.44724,233.02474 c -0.67964,0 -1.13457,-0.37614 -1.18061,-0.42309 l 0.24755,-0.36441 c 0.0691,0.0472 0.44345,0.33519 0.90997,0.33519 0.47227,0 0.74864,-0.28798 0.74864,-0.64664 0,-0.4291 -0.48948,-0.64065 -0.9041,-0.8462 -0.48948,-0.24102 -0.89263,-0.49979 -0.89263,-1.07574 0,-0.62291 0.49523,-1.05774 1.20356,-1.05774 0.70847,0 1.0597,0.3584 1.09426,0.39962 l -0.25915,0.34093 c -0.046,-0.0412 -0.35136,-0.29398 -0.80055,-0.29398 -0.42036,0 -0.71981,0.21155 -0.71981,0.56422 0,0.3704 0.33976,0.48778 0.71981,0.68759 0.33989,0.17634 1.09427,0.46432 1.09427,1.23434 0,0.64639 -0.46653,1.14591 -1.26121,1.14591 z"
       id="path67"
       style="fill:#ffffff;stroke-width:0px" />
    <path
       class="cls-2"
       d="m 130.54192,233.01901 c -1.01353,0 -1.74495,-0.84046 -1.74495,-2.02759 0,-1.21086 0.72568,-2.04531 1.77377,-2.04531 1.02514,0 1.73922,0.83445 1.73922,2.01584 0,1.22234 -0.71982,2.05706 -1.76804,2.05706 z m -0.006,-3.62633 c -0.73142,0 -1.20943,0.62891 -1.20943,1.58701 0,0.9521 0.53565,1.58674 1.23825,1.58674 0.80055,0 1.21517,-0.69933 1.21517,-1.62222 0,-0.93436 -0.51257,-1.55153 -1.24399,-1.55153 z"
       id="path68"
       style="fill:#ffffff;stroke-width:0px" />
    <path
       class="cls-2"
       d="m 134.0493,229.45737 v 1.23434 h 1.47432 v 0.4231 h -1.47432 v 1.82777 h -0.51257 v -3.92004 h 2.07897 v 0.43483 z"
       id="path69"
       style="fill:#ffffff;stroke-width:0px" />
    <path
       class="cls-2"
       d="m 138.22458,229.45737 v 3.48521 h -0.5183 v -3.48521 h -1.1287 v -0.43483 h 2.77009 v 0.43483 z"
       id="path70"
       style="fill:#ffffff;stroke-width:0px" />
    <path
       class="cls-2"
       d="m 144.08717,232.94258 h -0.62199 l -0.78321,-3.3793 -0.81202,3.3793 h -0.622 l -0.92719,-3.92004 h 0.51831 l 0.73142,3.37356 0.81777,-3.37356 h 0.61625 l 0.80055,3.37356 0.73716,-3.37356 h 0.47801 z"
       id="path71"
       style="fill:#ffffff;stroke-width:0px" />
    <path
       class="cls-2"
       d="m 148.23963,232.94258 -0.35123,-1.02253 h -1.58375 l -0.35136,1.02253 h -0.51831 l 1.39372,-3.92004 h 0.54713 l 1.40519,3.92004 z m -1.14604,-3.36183 -0.64495,1.9102 h 1.29577 z"
       id="path72"
       style="fill:#ffffff;stroke-width:0px" />
    <path
       class="cls-2"
       d="m 151.88526,232.94258 -0.44344,-1.02253 c -0.26502,-0.60543 -0.39167,-0.65839 -0.90998,-0.65839 h -0.24193 v 1.68092 h -0.5067 v -3.92004 h 0.85232 c 0.51257,0 0.90984,-0.006 1.22091,0.31145 0.19002,0.19381 0.29945,0.45257 0.29945,0.7815 0,0.2705 -0.0749,0.49979 -0.23607,0.67613 -0.13825,0.15259 -0.36284,0.28197 -0.61625,0.31145 0.12664,0.006 0.25341,0.0822 0.32827,0.1586 0.11517,0.11764 0.19577,0.30571 0.29946,0.54648 l 0.49522,1.13443 z m -0.40888,-3.29714 c -0.20737,-0.21155 -0.47801,-0.20581 -0.78907,-0.20581 h -0.3974 v 1.40468 h 0.17855 c 0.36858,0 0.7429,0.0117 0.98484,-0.23503 0.1209,-0.12338 0.19002,-0.30571 0.19002,-0.49379 0,-0.21154 -0.0806,-0.38188 -0.16694,-0.47005 z"
       id="path73"
       style="fill:#ffffff;stroke-width:0px" />
    <path
       class="cls-2"
       d="m 153.50357,232.94258 v -3.92004 h 2.12501 v 0.43483 h -1.61831 v 1.23434 h 1.52049 v 0.4231 h -1.52049 v 1.38119 h 1.66448 v 0.44658 z"
       id="path74"
       style="fill:#ffffff;stroke-width:0px" />
    <path
       class="cls-2"
       d="m 93.729825,239.99464 v -3.92005 h 2.125009 v 0.43484 h -1.618308 v 1.23434 h 1.520492 v 0.4231 h -1.520492 v 1.38119 h 1.66448 v 0.44658 h -2.171178 z"
       id="path75"
       style="fill:#ffffff;stroke-width:0px" />
    <path
       class="cls-2"
       d="m 99.396644,239.99464 -1.814076,-3.1208 0.01148,3.1208 H 97.12191 v -3.92005 h 0.512569 l 1.814076,3.13254 -0.01162,-3.13254 h 0.472268 v 3.92005 z"
       id="path76"
       style="fill:#ffffff;stroke-width:0px" />
    <path
       class="cls-2"
       d="m 102.99037,240.07681 c -1.04236,0 -1.85438,-0.74629 -1.85438,-2.00985 0,-1.31076 0.85806,-2.07479 1.91776,-2.07479 0.76025,0 1.13457,0.31745 1.18061,0.3644 l -0.22459,0.36441 c -0.0403,-0.0295 -0.3858,-0.2645 -0.92719,-0.2645 -0.78321,0 -1.41681,0.58195 -1.41681,1.56353 0,0.96383 0.52418,1.59848 1.38224,1.59848 0.5011,0 0.7429,-0.15286 0.77747,-0.17033 v -0.97584 h -0.82351 v -0.41709 h 1.32459 v 1.65143 c -0.0288,0.0235 -0.50683,0.37015 -1.3362,0.37015 z"
       id="path77"
       style="fill:#ffffff;stroke-width:0px" />
    <path
       class="cls-2"
       d="m 105.63394,239.99464 v -3.92005 h 0.51831 v 3.92005 z"
       id="path78"
       style="fill:#ffffff;stroke-width:0px" />
    <path
       class="cls-2"
       d="m 109.8207,239.99464 -1.81407,-3.1208 0.0115,3.1208 h -0.47214 v -3.92005 h 0.51257 l 1.81408,3.13254 -0.0116,-3.13254 h 0.47227 v 3.92005 z"
       id="path79"
       style="fill:#ffffff;stroke-width:0px" />
    <path
       class="cls-2"
       d="m 111.72712,239.99464 v -3.92005 h 2.12501 v 0.43484 h -1.61831 v 1.23434 h 1.52049 v 0.4231 h -1.52049 v 1.38119 h 1.66448 v 0.44658 z"
       id="path80"
       style="fill:#ffffff;stroke-width:0px" />
    <path
       class="cls-2"
       d="m 115.1192,239.99464 v -3.92005 h 2.12501 v 0.43484 h -1.6183 v 1.23434 h 1.52049 v 0.4231 h -1.52049 v 1.38119 h 1.66448 v 0.44658 h -2.17118 z"
       id="path81"
       style="fill:#ffffff;stroke-width:0px" />
    <path
       class="cls-2"
       d="m 120.61334,239.99464 -0.44344,-1.02253 c -0.26502,-0.60543 -0.39167,-0.65839 -0.90997,-0.65839 h -0.24194 v 1.68092 h -0.5067 v -3.92005 h 0.85232 c 0.51257,0 0.90984,-0.006 1.22091,0.31146 0.19003,0.19381 0.29945,0.45257 0.29945,0.7815 0,0.2705 -0.0749,0.49979 -0.23607,0.67612 -0.13825,0.1526 -0.36284,0.28198 -0.61625,0.31146 0.12664,0.006 0.25341,0.0822 0.32828,0.1586 0.11516,0.11764 0.19576,0.30571 0.29945,0.54647 l 0.49522,1.13444 z m -0.40888,-3.29714 c -0.20737,-0.21154 -0.47801,-0.20581 -0.78907,-0.20581 h -0.3974 v 1.40468 h 0.17855 c 0.36858,0 0.7429,0.0117 0.98484,-0.23503 0.1209,-0.12338 0.19003,-0.30571 0.19003,-0.49378 0,-0.21155 -0.0806,-0.38189 -0.16695,-0.47005 z"
       id="path82"
       style="fill:#ffffff;stroke-width:0px" />
    <path
       class="cls-2"
       d="m 122.23165,239.99464 v -3.92005 h 0.51831 v 3.92005 z"
       id="path83"
       style="fill:#ffffff;stroke-width:0px" />
    <path
       class="cls-2"
       d="m 126.41842,239.99464 -1.81408,-3.1208 0.0115,3.1208 h -0.47214 v -3.92005 h 0.51257 l 1.81408,3.13254 -0.0116,-3.13254 h 0.47227 v 3.92005 z"
       id="path84"
       style="fill:#ffffff;stroke-width:0px" />
    <path
       class="cls-2"
       d="m 130.01213,240.07681 c -1.04235,0 -1.85437,-0.74629 -1.85437,-2.00985 0,-1.31076 0.85806,-2.07479 1.91776,-2.07479 0.76025,0 1.13457,0.31745 1.18061,0.3644 l -0.2246,0.36441 c -0.0403,-0.0295 -0.38579,-0.2645 -0.92719,-0.2645 -0.7832,0 -1.41667,0.58195 -1.41667,1.56353 0,0.96383 0.52405,1.59848 1.38211,1.59848 0.50109,0 0.7429,-0.15286 0.77746,-0.17033 v -0.97584 h -0.8235 v -0.41709 h 1.32459 v 1.65143 c -0.0288,0.0235 -0.50683,0.37015 -1.3362,0.37015 z"
       id="path85"
       style="fill:#ffffff;stroke-width:0px" />
    <path
       class="cls-2"
       d="m 136.17444,240.07681 c -1.04235,0 -1.85438,-0.74629 -1.85438,-2.00985 0,-1.31076 0.85807,-2.07479 1.91777,-2.07479 0.76024,0 1.13456,0.31745 1.1806,0.3644 l -0.22459,0.36441 c -0.0403,-0.0295 -0.3858,-0.2645 -0.92719,-0.2645 -0.7832,0 -1.41667,0.58195 -1.41667,1.56353 0,0.96383 0.52404,1.59848 1.38211,1.59848 0.50109,0 0.7429,-0.15286 0.77746,-0.17033 v -0.97584 h -0.8235 v -0.41709 h 1.32459 v 1.65143 c -0.0288,0.0235 -0.50683,0.37015 -1.3362,0.37015 z"
       id="path86"
       style="fill:#ffffff;stroke-width:0px" />
    <path
       class="cls-2"
       d="m 140.92007,239.99464 -0.44345,-1.02253 c -0.26502,-0.60543 -0.39166,-0.65839 -0.90997,-0.65839 h -0.24194 v 1.68092 h -0.5067 v -3.92005 h 0.85233 c 0.51257,0 0.90984,-0.006 1.2209,0.31146 0.19003,0.19381 0.29946,0.45257 0.29946,0.7815 0,0.2705 -0.0749,0.49979 -0.23607,0.67612 -0.13825,0.1526 -0.36284,0.28198 -0.61626,0.31146 0.12664,0.006 0.25342,0.0822 0.32828,0.1586 0.11517,0.11764 0.19577,0.30571 0.29946,0.54647 l 0.49522,1.13444 z m -0.40888,-3.29714 c -0.20738,-0.21154 -0.47801,-0.20581 -0.78907,-0.20581 h -0.3974 v 1.40468 h 0.17855 c 0.36858,0 0.7429,0.0117 0.98483,-0.23503 0.12091,-0.12338 0.19003,-0.30571 0.19003,-0.49378 0,-0.21155 -0.0806,-0.38189 -0.16694,-0.47005 z"
       id="path87"
       style="fill:#ffffff;stroke-width:0px" />
    <path
       class="cls-2"
       d="m 144.07609,240.07107 c -1.01353,0 -1.74496,-0.84046 -1.74496,-2.02758 0,-1.21087 0.72569,-2.04532 1.77378,-2.04532 1.02514,0 1.73921,0.83445 1.73921,2.01584 0,1.22234 -0.71981,2.05706 -1.76803,2.05706 z m -0.006,-3.62633 c -0.73142,0 -1.20943,0.62891 -1.20943,1.58701 0,0.9521 0.53566,1.58674 1.23826,1.58674 0.80054,0 1.21517,-0.69933 1.21517,-1.62222 0,-0.93436 -0.51257,-1.55153 -1.244,-1.55153 z"
       id="path88"
       style="fill:#ffffff;stroke-width:0px" />
    <path
       class="cls-2"
       d="m 149.46667,239.68319 c -0.21312,0.21754 -0.54714,0.38788 -1.04823,0.38788 -0.40888,0 -0.80041,-0.12938 -1.06544,-0.39962 -0.34549,-0.35267 -0.33402,-0.79925 -0.33402,-1.18739 v -2.40947 h 0.51831 v 2.46842 c 0,0.29972 -0.0115,0.59343 0.21886,0.82872 0.15546,0.15859 0.3974,0.24676 0.67964,0.24676 0.28211,0 0.49522,-0.0999 0.63347,-0.24102 0.25916,-0.2645 0.23607,-0.56422 0.23607,-1.22834 v -2.07454 h 0.50683 v 1.99237 c 0,0.72882 0.0231,1.24008 -0.34549,1.61623 z"
       id="path89"
       style="fill:#ffffff;stroke-width:0px" />
    <path
       class="cls-2"
       d="m 153.28485,238.08444 c -0.36858,0.37614 -0.78894,0.35267 -1.34755,0.35267 h -0.27063 v 1.55753 h -0.51257 v -3.92005 h 0.96175 c 0.47227,0 0.87541,0.0235 1.16326,0.3172 0.21311,0.21755 0.32254,0.51726 0.32254,0.84045 0,0.31746 -0.0979,0.62891 -0.3168,0.8522 z m -0.41462,-1.41641 c -0.17855,-0.18207 -0.48949,-0.17634 -0.79468,-0.17634 h -0.40888 v 1.51632 h 0.25915 c 0.40888,0 0.73129,0.012 0.93867,-0.19981 0.13251,-0.13512 0.21885,-0.29972 0.21885,-0.58169 0,-0.21155 -0.0749,-0.41736 -0.21311,-0.55848 z"
       id="path90"
       style="fill:#ffffff;stroke-width:0px" />
    <path
       class="cls-2"
       d="m 115.49714,204.80082 c -0.72435,0 -1.36612,-0.11663 -1.92472,-0.34966 -0.55883,-0.23316 -1.02993,-0.55803 -1.41352,-0.97442 -0.38349,-0.41615 -0.67478,-0.91318 -0.87366,-1.49086 -0.19888,-0.57734 -0.29827,-1.21053 -0.29827,-1.89936 0,-0.65388 0.10293,-1.26617 0.309,-1.83734 0.20596,-0.57093 0.50297,-1.06911 0.89137,-1.49406 0.38816,-0.42495 0.86178,-0.75942 1.42061,-1.00377 0.5586,-0.24388 1.19317,-0.36612 1.90347,-0.36612 0.76708,0 1.43352,0.12543 1.99943,0.37595 0.5658,0.25074 1.0345,0.58956 1.40633,1.01679 0.37171,0.42723 0.64873,0.92518 0.83105,1.49418 0.1822,0.56877 0.27347,1.17352 0.27347,1.81437 0,0.37926 -0.038,0.7584 -0.11366,1.13777 -0.0759,0.37914 -0.19305,0.7432 -0.35161,1.09184 -0.15867,0.34887 -0.35984,0.67467 -0.60372,0.97761 -0.24401,0.30295 -0.53393,0.56557 -0.87012,0.78787 -0.33619,0.2223 -0.71853,0.39788 -1.14702,0.52639 -0.4286,0.12863 -0.90815,0.19283 -1.43843,0.19283 m 0.13503,-0.47076 c 0.49726,0 0.93157,-0.10338 1.3034,-0.3106 0.3716,-0.207 0.68186,-0.49144 0.93044,-0.85321 0.24857,-0.36178 0.43557,-0.78799 0.56111,-1.27839 0.12532,-0.49041 0.18826,-1.01885 0.18826,-1.58556 0,-0.65388 -0.0652,-1.25315 -0.19534,-1.79815 -0.13034,-0.5449 -0.32922,-1.01349 -0.59664,-1.40588 -0.26765,-0.39216 -0.60498,-0.69728 -1.01223,-0.91523 -0.40724,-0.21808 -0.88782,-0.32706 -1.44174,-0.32706 -0.52559,0 -0.97669,0.11115 -1.35321,0.33345 -0.3764,0.22241 -0.68426,0.51782 -0.92335,0.88611 -0.23909,0.3684 -0.41433,0.79335 -0.52559,1.27496 -0.11126,0.48173 -0.16689,0.98412 -0.16689,1.5072 0,0.64085 0.064,1.23361 0.19179,1.7785 0.12783,0.5449 0.32431,1.01668 0.58957,1.4157 0.26513,0.39879 0.60018,0.71156 1.00502,0.93809 0.40485,0.22675 0.88657,0.34007 1.4454,0.34007"
       id="path91"
       style="fill:#ffffff;stroke-width:0px" />
    <path
       class="cls-2"
       d="m 121.25382,204.30385 0.55403,-0.16347 c 0.12783,-0.0392 0.24377,-0.0948 0.34807,-0.16667 0.10407,-0.072 0.17752,-0.13182 0.22013,-0.1798 l 1.91775,-2.2231 -1.90359,-2.53039 c -0.0521,-0.0741 -0.12063,-0.14165 -0.20585,-0.20288 -0.0853,-0.061 -0.19659,-0.10886 -0.3339,-0.1437 l -0.52559,-0.13731 v -0.29426 h 3.19625 v 0.29426 l -0.93054,0.20265 1.11514,1.56923 0.3764,0.54935 1.63377,-2.09254 -0.90221,-0.22869 v -0.29426 h 2.50034 v 0.29426 l -0.55403,0.16335 c -0.12794,0.0393 -0.24412,0.0949 -0.34796,0.16678 -0.10441,0.072 -0.17763,0.13194 -0.22035,0.17981 l -1.83254,2.14474 1.98172,2.60886 c 0.0522,0.0741 0.12086,0.14176 0.20608,0.20276 0.0851,0.061 0.19637,0.10898 0.33368,0.14382 l 0.50434,0.1372 v 0.29427 h -3.18917 v -0.29427 l 0.94459,-0.20265 -1.19316,-1.64759 -0.37641,-0.54935 -1.71887,2.17089 0.9021,0.2287 v 0.29427 h -2.50023 v -0.29427 z"
       id="path92"
       style="fill:#ffffff;stroke-width:0px" />
    <path
       class="cls-2"
       d="m 129.49623,204.29087 0.90221,-0.1766 c 0.0946,-0.0217 0.17386,-0.0675 0.23784,-0.13731 0.0639,-0.0696 0.0959,-0.15262 0.0959,-0.24846 v -7.27096 c 0,-0.10018 -0.0321,-0.18506 -0.0959,-0.25486 -0.064,-0.0698 -0.14325,-0.11549 -0.23784,-0.13742 l -0.90221,-0.16998 v -0.30729 h 3.59401 c 0.4831,0 0.90679,0.0305 1.27142,0.0916 0.36452,0.061 0.67844,0.14485 0.94106,0.25165 0.26285,0.10681 0.48058,0.2311 0.65353,0.37263 0.17283,0.14177 0.31003,0.29541 0.41192,0.46105 0.10178,0.16564 0.17284,0.33893 0.21316,0.51976 0.0401,0.18095 0.0604,0.36076 0.0604,0.53953 0,0.37046 -0.0724,0.69957 -0.2167,0.98732 -0.1445,0.28764 -0.3267,0.53393 -0.54695,0.73875 -0.22012,0.20494 -0.46059,0.37172 -0.72093,0.50023 -0.26045,0.12874 -0.50422,0.2191 -0.73155,0.27142 l 2.69192,3.26925 c 0.0426,0.0523 0.0947,0.10795 0.15616,0.16678 0.0616,0.0588 0.12554,0.11332 0.19191,0.16335 0.0661,0.0503 0.13377,0.0939 0.20242,0.1308 0.0685,0.0371 0.13377,0.0621 0.19534,0.0753 l 0.79552,0.16347 v 0.30728 h -1.49874 c -0.21305,0 -0.38954,-0.0153 -0.52924,-0.0458 -0.1396,-0.0304 -0.2616,-0.0795 -0.36578,-0.14702 -0.10407,-0.0676 -0.20002,-0.15273 -0.28752,-0.25508 -0.0877,-0.10247 -0.18826,-0.22562 -0.30192,-0.36944 l -2.5144,-3.19739 -1.15068,-0.20265 v 3.34772 c 0,0.1003 0.0272,0.18312 0.0817,0.24846 0.0545,0.0655 0.12908,0.11115 0.2239,0.13731 l 1.05106,0.1766 v 0.30729 h -3.87103 v -0.30729 z m 2.51439,-4.31551 c 0.0521,0.013 0.12543,0.0241 0.22024,0.0328 0.0947,0.009 0.19637,0.0162 0.30546,0.0227 0.10887,0.007 0.21419,0.011 0.31609,0.0133 0.10178,0.002 0.18574,0.003 0.25211,0.003 0.36932,0 0.68997,-0.0555 0.96242,-0.16678 0.27222,-0.11115 0.49829,-0.25829 0.6782,-0.44129 0.18004,-0.18312 0.31495,-0.39456 0.40485,-0.63422 0.09,-0.23978 0.13502,-0.49041 0.13502,-0.752 0,-0.34876 -0.0521,-0.64828 -0.15616,-0.89914 -0.10429,-0.25062 -0.25474,-0.45647 -0.45111,-0.61777 -0.19659,-0.1613 -0.43923,-0.2801 -0.72789,-0.35652 -0.28913,-0.0761 -0.61812,-0.11435 -0.98744,-0.11435 h -0.95179 v 3.9101 z"
       id="path93"
       style="fill:#ffffff;stroke-width:0px" />
    <path
       class="cls-2"
       d="m 139.47909,201.90427 h 0.3764 l 0.56111,1.30123 c 0.0237,0.0523 0.0698,0.11344 0.13845,0.18301 0.0687,0.0698 0.12897,0.11994 0.18118,0.15044 0.17043,0.1003 0.35515,0.1918 0.55391,0.2745 0.199,0.0829 0.39777,0.15376 0.59676,0.21259 0.19877,0.0588 0.38817,0.10464 0.5682,0.1372 0.17992,0.0328 0.33848,0.0491 0.4759,0.0491 0.29826,0 0.56934,-0.0392 0.81323,-0.11766 0.24377,-0.0785 0.45213,-0.19294 0.62508,-0.34328 0.17272,-0.15044 0.30524,-0.33561 0.39777,-0.55574 0.0923,-0.22013 0.13845,-0.47179 0.13845,-0.75531 0,-0.40096 -0.11835,-0.72904 -0.35516,-0.98401 -0.2368,-0.25497 -0.55654,-0.46105 -0.95887,-0.61789 -0.17992,-0.0696 -0.35755,-0.12748 -0.53267,-0.17329 -0.17524,-0.0458 -0.3515,-0.0905 -0.52913,-0.13411 -0.17764,-0.0434 -0.35516,-0.0882 -0.53279,-0.13388 -0.17763,-0.0459 -0.35412,-0.10144 -0.52913,-0.16678 -0.53039,-0.19626 -0.94117,-0.47739 -1.23224,-0.8435 -0.29129,-0.36612 -0.43683,-0.81083 -0.43683,-1.33391 0,-0.37034 0.078,-0.71807 0.23441,-1.04295 0.15616,-0.32465 0.37286,-0.60807 0.64987,-0.8499 0.27702,-0.24195 0.60487,-0.43157 0.98367,-0.569 0.37891,-0.13719 0.78844,-0.20584 1.22881,-0.20584 0.24149,0 0.48047,0.0121 0.71739,0.0359 0.23669,0.0241 0.46881,0.0555 0.69602,0.0949 0.22733,0.0392 0.44746,0.086 0.66062,0.14062 0.21304,0.0545 0.41889,0.11218 0.618,0.17318 v 2.12509 h -0.37663 l -0.49006,-1.20962 c -0.0237,-0.0655 -0.0674,-0.12429 -0.13137,-0.17661 -0.0639,-0.0523 -0.122,-0.0958 -0.17398,-0.1308 -0.11355,-0.0785 -0.24618,-0.14599 -0.39776,-0.20276 -0.15159,-0.0565 -0.30672,-0.10453 -0.46539,-0.14382 -0.15844,-0.0392 -0.31369,-0.0685 -0.46516,-0.0882 -0.15159,-0.0196 -0.2817,-0.0295 -0.39057,-0.0295 -0.27941,0 -0.52924,0.036 -0.74948,0.10783 -0.22002,0.072 -0.40588,0.17113 -0.55735,0.2977 -0.1517,0.12634 -0.2689,0.27896 -0.35172,0.45762 -0.0829,0.17877 -0.12417,0.37263 -0.12417,0.5819 0,0.18312 0.0188,0.36189 0.0568,0.53621 0.0378,0.17432 0.10646,0.33779 0.20585,0.49041 0.0995,0.15262 0.23555,0.29312 0.40861,0.42175 0.17261,0.12851 0.39159,0.23635 0.65696,0.32362 0.17043,0.0567 0.33961,0.10693 0.50777,0.15045 0.16804,0.0435 0.33733,0.0872 0.50777,0.13068 0.17054,0.0436 0.34464,0.0916 0.52204,0.14393 0.17764,0.0522 0.36349,0.11549 0.55758,0.18952 0.21784,0.0829 0.43214,0.18209 0.6429,0.29746 0.21065,0.11561 0.39879,0.25829 0.56466,0.42826 0.16564,0.1701 0.29941,0.37275 0.4013,0.60818 0.10178,0.23532 0.15273,0.5144 0.15273,0.83688 0,0.34453 -0.0676,0.68563 -0.20242,1.02342 -0.13502,0.33779 -0.34807,0.6397 -0.63925,0.90553 -0.2913,0.26593 -0.66415,0.48161 -1.11869,0.64736 -0.45454,0.16564 -0.9992,0.24834 -1.63365,0.24834 -0.20837,0 -0.42747,-0.0162 -0.65708,-0.049 -0.22961,-0.0325 -0.46641,-0.075 -0.71007,-0.12737 -0.24412,-0.0524 -0.49144,-0.11343 -0.74241,-0.18311 -0.25108,-0.0697 -0.49965,-0.14165 -0.74571,-0.2159 l -0.17044,-2.32112 z"
       id="path94"
       style="fill:#ffffff;stroke-width:0px" />
    <path
       class="cls-2"
       d="m 147.75009,204.29091 0.90199,-0.17661 c 0.0948,-0.0217 0.17409,-0.0676 0.23795,-0.1373 0.064,-0.0696 0.096,-0.15262 0.096,-0.24846 v -7.27097 c 0,-0.10018 -0.032,-0.18506 -0.096,-0.25497 -0.0639,-0.0697 -0.14314,-0.11537 -0.23795,-0.13742 l -0.90199,-0.16987 v -0.3074 h 7.13126 v 2.11207 h -0.39787 l -0.50423,-1.39274 c -0.0238,-0.0654 -0.0569,-0.11983 -0.0995,-0.16346 -0.0425,-0.0435 -0.10635,-0.0655 -0.1918,-0.0655 h -3.42346 v 3.57665 h 2.24446 c 0.0946,0 0.16335,-0.0195 0.20608,-0.0589 0.0426,-0.0391 0.0756,-0.0892 0.0994,-0.15033 l 0.40484,-1.07231 h 0.34796 v 3.0666 h -0.34796 l -0.40484,-1.05917 c -0.0238,-0.0698 -0.0568,-0.12532 -0.0994,-0.16667 -0.0427,-0.0415 -0.11149,-0.0621 -0.20608,-0.0621 h -2.24446 v 3.94917 h 4.03427 c 0.0853,0 0.1493,-0.0207 0.19192,-0.062 0.0426,-0.0413 0.0756,-0.097 0.0994,-0.16678 l 0.4759,-1.57585 h 0.39776 v 2.30157 h -7.71363 v -0.30717 z"
       id="path95"
       style="fill:#ffffff;stroke-width:0px" />
    <path
       class="cls-2"
       d="m 155.44636,191.85953 c -0.0872,0 -0.17044,-0.0502 -0.20848,-0.13491 l -1.11035,-2.47042 h -0.0992 c -0.12623,0 -0.22847,-0.10224 -0.22847,-0.22846 v -1.25657 c -0.0952,-0.0276 -0.16461,-0.11538 -0.16461,-0.21945 v -0.54775 h -0.0657 c -0.0125,0 -0.0248,-0.001 -0.0369,-0.003 -0.02,0.006 -0.0411,0.009 -0.0631,0.009 h -0.11252 v 0.50662 c 0,0.0834 -0.0451,0.15753 -0.11355,0.19751 l 0.0312,1.37332 c 0.003,0.11583 -0.0819,0.21533 -0.19649,0.23143 l -1.54089,0.21762 c -0.0652,0.009 -0.13171,-0.0103 -0.18175,-0.0538 -0.0499,-0.0434 -0.0786,-0.10624 -0.0786,-0.17238 v -1.46402 c -0.10429,-0.0215 -0.18232,-0.11378 -0.18232,-0.22379 v -0.59241 l -0.0842,-0.003 c -0.01,-3.4e-4 -0.019,-0.001 -0.0282,-0.003 -0.0287,0.013 -0.0607,0.0203 -0.0942,0.0203 h -0.0951 v 0.57722 c 0,0.0743 -0.0361,0.14382 -0.0967,0.18654 l -0.007,0.005 -0.0434,1.4093 c -0.003,0.10258 -0.0745,0.19054 -0.1742,0.21488 l -1.25258,0.30568 c -0.0656,0.0161 -0.13422,0.002 -0.18837,-0.037 -0.0544,-0.0394 -0.0886,-0.10075 -0.0936,-0.16758 l -0.19602,-2.58339 c -0.0517,-0.0334 -0.0894,-0.0873 -0.10098,-0.15136 l -0.19169,-1.05998 c -0.003,-3.4e-4 -0.006,-6.8e-4 -0.009,-0.001 -0.0514,-0.007 -0.0971,-0.0314 -0.13148,-0.0666 -0.04,0.0538 -0.10304,0.0892 -0.1742,0.0922 -0.11298,0.005 -0.21476,-0.0763 -0.23441,-0.18928 l -0.8756,-5.0505 -0.74332,5.06227 c -0.0165,0.11229 -0.11275,0.19533 -0.22607,0.19533 h -10e-4 c -0.0741,-4.5e-4 -0.14073,-0.0362 -0.18243,-0.0923 l -0.11275,1.05267 c -0.0116,0.10795 -0.0978,0.19305 -0.20596,0.20299 -0.0861,0.009 -0.16758,-0.0332 -0.21293,-0.10304 l -0.28604,0.83208 c -0.0313,0.0906 -0.11572,0.15216 -0.21156,0.1541 l -1.77599,0.0352 c -0.0653,0.003 -0.12075,-0.0223 -0.1645,-0.0652 -0.0439,-0.0429 -0.0685,-0.10178 -0.0685,-0.16313 v -0.69396 c 0,-0.0355 0.008,-0.07 0.0235,-0.10099 v -0.10841 l -0.39582,0.005 v 0.0864 c 0,0.0223 -0.003,0.044 -0.009,0.0647 0.006,0.0208 0.009,0.0426 0.009,0.0647 v 0.74104 c 0,0.0616 -0.0248,0.12051 -0.0689,0.16358 -0.0441,0.0429 -0.10441,0.0667 -0.16507,0.0649 l -0.007,-2.2e-4 v 3.70608 c 0,0.12611 -0.10224,0.22846 -0.22847,0.22846 h -1.52308 c -0.12611,0 -0.22847,-0.10235 -0.22847,-0.22846 v -1.69637 l -0.17797,-0.18666 c -0.0404,-0.0425 -0.0631,-0.0989 -0.0631,-0.15764 v -0.30466 l -0.0942,-0.0785 c -0.0522,-0.0434 -0.0823,-0.10772 -0.0823,-0.17558 v -1.82123 l -0.092,-0.76947 -0.006,6.8e-4 c -0.064,0.007 -0.12965,-0.0128 -0.17843,-0.0561 -0.041,-0.0364 -0.0672,-0.086 -0.0746,-0.13959 -0.0431,-0.007 -0.0837,-0.027 -0.11652,-0.0572 -0.0469,-0.0433 -0.0738,-0.10418 -0.0738,-0.16804 v -0.0241 l -0.045,-0.12303 -0.23589,-0.42895 -0.12726,-0.13697 -0.32979,-0.29015 c -0.009,-0.007 -0.0166,-0.0152 -0.0239,-0.0238 l -0.2608,-0.29541 c -0.014,-0.0155 -0.0258,-0.0329 -0.0352,-0.0515 l -0.0326,-0.0652 -0.0414,0.1654 c -0.007,0.0266 -0.018,0.0519 -0.0337,0.0745 l -0.11755,0.17043 c -0.014,0.0203 -0.0312,0.0382 -0.051,0.053 l -0.13045,0.0978 -0.11366,0.10841 c -0.005,0.005 -0.0109,0.01 -0.0167,0.0143 l -0.28718,0.22538 -0.11481,0.11949 -0.0816,0.12634 -0.0387,0.20334 c -0.0203,0.10646 -0.11263,0.18414 -0.22104,0.18574 l -0.29929,0.004 -0.0271,1.06238 0.0311,1.94448 c 7.9e-4,0.0612 -0.0229,0.12017 -0.0657,0.16381 -0.0428,0.0436 -0.10156,0.0682 -0.16279,0.0682 h -0.18517 c -0.12623,0 -0.22847,-0.10224 -0.22847,-0.22847 v -0.94288 l -0.0828,-0.12874 c -0.0238,-0.0369 -0.0363,-0.0797 -0.0363,-0.1236 v -0.11207 l -0.0898,-0.004 c -0.12246,-0.005 -0.21899,-0.1059 -0.21899,-0.22836 v -0.48069 c -0.0498,-0.0171 -0.093,-0.0512 -0.12108,-0.0974 l -0.0751,-0.12349 c -0.003,-0.005 -0.006,-0.01 -0.008,-0.0153 l -0.14016,-0.2761 -0.16267,-0.25211 -0.19819,-0.23864 -0.40976,-0.38119 -0.28147,-0.15901 c -0.0717,-0.0406 -0.11606,-0.11652 -0.11606,-0.19889 v -0.0101 l -0.10715,-0.004 c -0.12246,-0.005 -0.21922,-0.10578 -0.21922,-0.22835 v -0.23566 l -0.0832,-0.19523 c -0.012,-0.0283 -0.0183,-0.0588 -0.0183,-0.0896 v -0.67397 l -0.0337,-0.11903 -0.0712,-0.0762 -0.11835,-0.0777 c -0.01,-0.007 -0.0193,-0.0137 -0.028,-0.0217 l -0.052,-0.047 c -0.0158,0.0362 -0.0408,0.0682 -0.0736,0.0922 l -0.0876,0.0649 -0.0564,0.0564 -0.019,0.0666 v 0.71784 c 0,0.0206 -0.003,0.0411 -0.008,0.061 l -0.0712,0.25669 v 0.22481 c 0,0.12303 -0.0975,0.22401 -0.22047,0.22835 l -0.15879,0.005 v 0.0748 c 0,0.0722 -0.0342,0.14005 -0.092,0.18323 l -0.21693,0.16164 -0.43877,0.38405 -0.15913,0.19591 -0.15318,0.19877 -0.15582,0.24583 -0.10943,0.2191 c -0.0233,0.0467 -0.0618,0.0836 -0.1083,0.10521 v 0.34396 c 0,0.0672 -0.0296,0.13091 -0.0808,0.17432 -0.0513,0.0435 -0.11914,0.0623 -0.18517,0.0511 l -0.11504,-0.0192 -0.008,0.0184 1.1e-4,9.3e-4 0.0292,0.0172 c 0.0945,0.0556 0.13605,0.17043 0.0993,0.2737 l -0.0588,0.16472 c -0.0146,0.0409 -0.0406,0.0769 -0.0749,0.1035 l -0.0176,0.0137 v 0.24103 c 0,0.0428 -0.0119,0.0832 -0.0326,0.11766 0.0207,0.0345 0.0326,0.0748 0.0326,0.11766 v 0.63514 c 0,0.036 -0.009,0.0715 -0.0249,0.10372 l -0.30581,0.59985 c -0.0353,0.0693 -0.10349,0.11594 -0.18094,0.1236 l -0.11755,0.0118 c -0.11252,0.0105 -0.21304,-0.0593 -0.24275,-0.16621 l -0.0658,-0.23669 -0.69716,0.0749 v 1.72378 c 0,0.12611 -0.10224,0.22847 -0.22847,0.22847 h -4.89468 c -0.12588,0 -0.22801,-0.10178 -0.22847,-0.22755 l -0.0153,-3.50115 c -0.0327,0.0161 -0.0691,0.0252 -0.10623,0.0237 l -0.52513,-0.0115 c -0.0671,-0.001 -0.12772,-0.0319 -0.16884,-0.0801 -0.0407,0.0428 -0.0977,0.0697 -0.16039,0.071 l -0.39707,0.009 c -0.11161,0.003 -0.21019,-0.0773 -0.22995,-0.18826 l -0.0908,-0.50845 c -0.0241,0.10315 -0.11618,0.17637 -0.22241,0.17637 h -8e-4 l -1.29666,-0.004 c -0.11412,-3.5e-4 -0.21042,-0.0849 -0.22562,-0.19797 l -0.0349,-0.25954 -0.0383,0.23133 0.008,3.18597 c 1.1e-4,0.0625 -0.0252,0.12223 -0.0703,0.16541 -0.045,0.0432 -0.10636,0.0668 -0.16816,0.0634 l -1.42894,-0.0617 c -0.0776,-0.003 -0.14794,-0.0458 -0.18723,-0.11263 l -1.15148,-1.96276 -0.1148,-0.12258 c -0.0398,-0.0423 -0.0618,-0.0981 -0.0618,-0.15615 v -0.39262 l -0.12121,-0.12486 c -0.0127,0.003 -0.0258,0.004 -0.0392,0.005 l -0.24697,0.009 c -0.10624,0.004 -0.20277,-0.0676 -0.22949,-0.17158 l -0.0882,-0.34407 c -0.005,-0.0177 -0.007,-0.036 -0.007,-0.0544 l -0.0176,-1.70242 c -2.3e-4,-0.0222 0.003,-0.0439 0.009,-0.0647 -0.01,-0.0234 -0.0158,-0.049 -0.0173,-0.0756 l -0.0329,-0.61858 -0.11561,-0.003 c -0.11092,-0.003 -0.20356,-0.0851 -0.21979,-0.19488 l -0.28386,-1.91558 -0.24252,1.94574 c -0.0143,0.11434 -0.11149,0.20013 -0.22676,0.20013 h -0.0786 l -0.12429,0.60201 0.0695,1.78056 c 0.002,0.0356 -0.005,0.0711 -0.0202,0.10338 l -0.0194,0.0426 0.0391,0.45191 c 0.005,0.0637 -0.0161,0.12691 -0.0593,0.17409 -0.0433,0.0472 -0.10441,0.074 -0.16838,0.074 h -0.29106 c -0.0826,0 -0.15479,-0.0438 -0.195,-0.10932 v 0.45419 c 0,0.0337 -0.007,0.0669 -0.0217,0.0973 l -0.0467,0.0992 0.0682,1.62885 c 0.003,0.0622 -0.0202,0.1228 -0.0634,0.1677 -0.0431,0.0449 -0.10258,0.0702 -0.16484,0.0702 h -1.50845 c -0.11287,0 -0.20882,-0.0824 -0.22584,-0.19397 l -0.49292,-3.22984 -0.39833,3.10099 c -0.004,0.0307 -0.0142,0.0604 -0.03,0.0872 l -0.27324,0.46241 0.0102,0.8772 c 0.002,0.12612 -0.0996,0.22962 -0.22584,0.2311 -0.12463,-0.003 -0.22961,-0.0998 -0.23109,-0.22595 l -0.0109,-0.94095 c -5.3e-4,-0.0418 0.0105,-0.0828 0.0318,-0.1188 l 0.28192,-0.47704 0.53416,-4.15788 0.0746,-1.01405 c 0.009,-0.11983 0.10532,-0.21487 0.22881,-0.21179 0.12006,5.8e-4 0.21921,0.0939 0.22698,0.21373 l 0.0656,1.00903 0.63045,4.13171 h 1.07403 l -0.0607,-1.44688 c -0.002,-0.0368 0.006,-0.0734 0.0216,-0.10681 l 0.0488,-0.10372 v -0.48698 c 0,-0.0324 0.007,-0.0645 0.0203,-0.0941 l 0.33516,-0.74103 c 0.04,-0.0882 0.13159,-0.14108 0.22721,-0.13354 0.0451,0.004 0.0867,0.0207 0.12086,0.0471 l -0.0594,-1.52171 c -7.9e-4,-0.0185 8e-4,-0.037 0.005,-0.0552 l 0.16758,-0.81152 c 0.0218,-0.10612 0.11527,-0.18232 0.22367,-0.18232 h 0.0629 l 0.42484,-3.4077 c 0.0142,-0.11332 0.10989,-0.19888 0.22412,-0.20014 0.11629,-1.1e-4 0.21191,0.082 0.22858,0.195 l 0.50126,3.38291 0.13468,0.004 c 0.11903,0.003 0.21567,0.0973 0.22196,0.21624 l 0.0348,0.65559 c 0.0745,0.0382 0.12417,0.1156 0.12417,0.20333 v 0.0794 c 0,0.078 -0.0397,0.14999 -0.10429,0.1918 l 0.0116,1.1324 c 0.003,-0.002 0.006,-0.005 0.009,-0.007 0.0535,-0.0403 0.12189,-0.0552 0.18735,-0.0406 l 0.0793,0.0177 c 0.10453,0.0232 0.17878,0.11594 0.17878,0.22298 v 0.44551 l 0.21784,0.22458 c 0.0414,0.0426 0.0646,0.0996 0.0646,0.15901 v 0.39491 l 0.0705,0.0752 c 0.0115,0.0123 0.0218,0.026 0.0304,0.0407 l 1.10144,1.87743 1.06592,0.0462 -0.007,-2.96596 c 0,-0.0127 0.001,-0.0254 0.003,-0.0379 l 0.29004,-1.75235 c 0.0185,-0.1116 0.11297,-0.19043 0.22881,-0.19122 0.11309,0.002 0.2079,0.0859 0.22298,0.19796 l 0.21167,1.5714 0.91159,0.003 0.20276,-0.96184 c 0.0225,-0.10704 0.11435,-0.18152 0.2271,-0.18129 0.10932,0.002 0.20219,0.0806 0.22138,0.18825 l 0.26263,1.47168 0.003,-1.2e-4 0.12337,-1.02353 c 0.0137,-0.11321 0.10875,-0.19911 0.22287,-0.20105 0.11697,-0.005 0.21201,0.0803 0.22972,0.19305 l 0.16278,1.04044 0.10053,0.002 v -0.41329 c 0,-0.0107 7.9e-4,-0.0215 0.002,-0.032 l 0.14998,-1.0586 c 0.0156,-0.11092 0.10944,-0.19409 0.22138,-0.19637 0.11127,-0.006 0.20905,0.0768 0.2295,0.18677 l 0.16027,0.86715 c 0.029,0.0103 0.056,0.0264 0.079,0.0478 0.0466,0.0433 0.0732,0.10395 0.0732,0.16769 v 0.097 c 0,0.0632 -0.0263,0.1236 -0.0724,0.16679 -0.0176,0.0166 -0.0376,0.0299 -0.059,0.04 l 0.0167,3.83722 h 4.43878 v -1.70048 c 0,-0.11675 0.0881,-0.21476 0.20402,-0.22722 l 1.09378,-0.11754 c 0.11229,-0.0122 0.21442,0.0581 0.24446,0.16552 l 0.0926,-0.18151 v -0.37458 l -0.019,-0.002 c -0.0658,-0.007 -0.12531,-0.042 -0.16324,-0.0963 -0.0379,-0.0541 -0.0505,-0.12211 -0.0345,-0.18631 l 0.0471,-0.18826 c 0.021,-0.0836 0.0869,-0.14759 0.16963,-0.16701 v -0.15387 c 0,-0.0693 0.0315,-0.13503 0.0857,-0.17832 -0.0304,-0.0361 -0.0491,-0.0813 -0.0527,-0.12966 l -0.0131,-0.17637 c -0.003,-0.0369 0.003,-0.0739 0.0182,-0.10795 l 0.10133,-0.23372 c 0.0419,-0.0963 0.14393,-0.15205 0.24709,-0.13446 l 0.0251,0.004 v -0.25509 c 0,-0.10886 0.0769,-0.20265 0.18369,-0.22401 l 0.0228,-0.005 0.0645,-0.12931 c 0.004,-0.007 0.007,-0.0137 0.0114,-0.0202 l 0.1677,-0.26456 c 0.004,-0.006 0.008,-0.0117 0.012,-0.0173 l 0.16324,-0.21179 0.17569,-0.21624 c 0.008,-0.0105 0.0179,-0.0203 0.0283,-0.0291 l 0.45579,-0.39891 c 0.005,-0.004 0.01,-0.009 0.0153,-0.0125 l 0.13297,-0.0992 v -0.18083 c 0,-0.12303 0.0976,-0.22402 0.22059,-0.22836 l 0.15867,-0.005 v -0.0352 c 0,-0.0206 0.003,-0.041 0.008,-0.061 l 0.0712,-0.25668 v -0.71876 c 0,-0.0212 0.003,-0.0424 0.009,-0.0627 l 0.0441,-0.15433 c 0.0105,-0.0374 0.0306,-0.0714 0.058,-0.0989 l 0.11035,-0.11023 c 0.008,-0.008 0.0167,-0.0154 0.0257,-0.0222 l 0.0219,-0.0162 0.0191,-0.0882 -0.0216,-0.17306 c -0.004,-0.028 -0.002,-0.0563 0.005,-0.0837 l 0.0264,-0.10578 c 0.009,-0.035 0.0256,-0.0672 0.049,-0.0944 l 0.0573,-0.0661 c 0.0332,-0.0383 0.0781,-0.0644 0.12783,-0.0744 l 0.15433,-0.0309 c 0.0753,-0.0151 0.1525,0.008 0.20653,0.0626 l 0.0749,0.0749 c 0.0182,0.0184 0.0332,0.0396 0.0444,0.0629 l 0.0486,0.10133 c 0.0147,0.0308 0.0224,0.0645 0.0224,0.0987 v 0.097 c 0,0.0247 -0.004,0.049 -0.0116,0.0723 l -0.0223,0.0664 0.11606,0.0761 c 0.0153,0.0101 0.0292,0.0217 0.0416,0.035 l 0.12783,0.13673 c 0.0249,0.0267 0.0431,0.0588 0.053,0.0939 l 0.0573,0.20288 c 0.006,0.0202 0.009,0.0411 0.009,0.0621 v 0.65913 l 0.0832,0.19533 c 0.012,0.0282 0.0183,0.0587 0.0183,0.0894 v 0.0629 l 0.10715,0.004 c 0.12257,0.005 0.21921,0.10578 0.21921,0.22835 v 0.0961 l 0.18837,0.10635 c 0.0153,0.009 0.0295,0.0191 0.0424,0.0308 l 0.44266,0.41169 c 0.007,0.007 0.0134,0.0134 0.0194,0.0207 l 0.21601,0.26011 c 0.006,0.007 0.0112,0.0144 0.0162,0.0222 l 0.17649,0.27348 c 0.004,0.007 0.008,0.0135 0.0116,0.0204 l 0.14542,0.28512 h 0.0876 c 0.12611,0 0.22847,0.10236 0.22847,0.22847 v 0.15879 c 0,0.0378 -0.009,0.0737 -0.0257,0.1052 0.0331,0.009 0.0636,0.0243 0.0896,0.046 l -5.3e-4,-0.0241 0.0311,-1.22676 c 0.002,-0.0809 0.0467,-0.15467 0.11744,-0.19397 l 0.11914,-0.0661 c 0.0329,-0.0183 0.0698,-0.0282 0.1075,-0.0288 l 0.2151,-0.003 0.0122,-0.0641 c 0.005,-0.0288 0.0165,-0.0564 0.0324,-0.081 l 0.11755,-0.18232 c 0.008,-0.0123 0.0171,-0.0239 0.0272,-0.0344 l 0.14131,-0.14714 c 0.007,-0.008 0.0153,-0.0148 0.0238,-0.0215 l 0.29129,-0.22847 0.11538,-0.11001 c 0.007,-0.006 0.0134,-0.012 0.0206,-0.0174 l 0.11137,-0.0835 0.0729,-0.10566 0.033,-0.13251 0.0383,-0.36029 v -0.25258 c 0,-0.0187 0.002,-0.0374 0.007,-0.0555 l 0.0226,-0.0904 v -1.07734 c 0,-0.0764 0.0383,-0.14781 0.1019,-0.1902 l 0.0706,-0.0471 c 0.0319,-0.0213 0.0685,-0.034 0.10669,-0.0375 l 0.13525,-0.0118 c 0.0589,-0.005 0.11675,0.0126 0.16256,0.0492 l 0.0531,0.0425 0.11161,0.0781 c 0.0611,0.0427 0.0975,0.11252 0.0975,0.18712 v 0.14119 c 0,0.10807 -0.0756,0.20105 -0.18083,0.22344 l 0.0102,0.26777 0.029,0.45887 0.0429,0.50412 0.0604,0.12085 0.23635,0.26823 0.33151,0.29198 c 0.005,0.005 0.0102,0.009 0.015,0.0145 l 0.15297,0.16461 c 0.0123,0.0134 0.023,0.0281 0.0319,0.0439 l 0.24926,0.45305 0.0403,-0.004 c 0.003,-3.5e-4 0.007,-5.9e-4 0.01,-8e-4 0.0505,-0.0287 0.11057,-0.0374 0.16804,-0.023 l 0.0942,0.0235 c 0.0919,0.023 0.16027,0.10042 0.17146,0.19454 l 0.15878,1.32911 c 0.001,0.009 0.002,0.018 0.002,0.0271 v 1.72779 l 0.0942,0.0785 c 0.0521,0.0434 0.0822,0.10772 0.0822,0.17557 v 0.3202 l 0.17787,0.18666 c 0.0405,0.0425 0.0632,0.0989 0.0632,0.15764 v 1.5594 h 1.06614 v -3.71183 c 0,-0.0616 0.0249,-0.12052 0.069,-0.16347 0.044,-0.0431 0.10326,-0.0667 0.16506,-0.0649 l 0.007,1.1e-4 v -0.41672 l -0.0208,-0.0224 c -0.0492,-0.0527 -0.0706,-0.12543 -0.0579,-0.19637 0.01,-0.0535 0.0378,-0.1011 0.0787,-0.13514 v -0.17729 c 0,-0.12486 0.10041,-0.22664 0.22538,-0.22847 l 0.85275,-0.0118 c 0.0588,10e-4 0.12018,0.023 0.16359,0.0659 0.0434,0.043 0.068,0.10144 0.068,0.16255 v 0.20002 c 0.0365,0.0326 0.0624,0.0765 0.0722,0.12646 0.0173,0.0884 -0.0188,0.17878 -0.0925,0.23064 l -0.003,0.002 v 0.34259 l 1.38348,-0.0274 0.45956,-1.33699 c 0.0318,-0.0924 0.11869,-0.15421 0.21613,-0.15421 0.001,0 0.003,0 0.004,1.1e-4 0.0126,2.3e-4 0.0249,0.001 0.037,0.004 l 0.21362,-1.99326 c 0.0122,-0.1148 0.10829,-0.20242 0.22378,-0.20413 h 0.003 c 0.11412,0 0.21087,0.0843 0.22641,0.19751 l 0.005,0.038 0.60544,-4.12406 0.1051,-1.62554 c 0.008,-0.1195 0.10635,-0.21271 0.22606,-0.21374 h 0.002 c 0.1188,0 0.21807,0.0912 0.22778,0.20974 l 0.13445,1.63639 0.68963,3.97842 c 0.0204,-0.10521 0.11218,-0.18346 0.2215,-0.18495 h 0.003 c 0.11594,0 0.21361,0.0869 0.22709,0.20231 l 0.13868,1.2038 c 0.0868,0.0211 0.15456,0.0917 0.17078,0.1814 l 0.19683,1.08899 c 0.0844,0.0292 0.14599,0.10623 0.15307,0.19865 l 0.20893,2.75428 0.82214,-0.2007 0.0418,-1.34956 c 0.002,-0.0716 0.038,-0.13811 0.0965,-0.17946 l 0.003,-0.002 v -1.2696 c 0,-0.12611 0.10223,-0.22847 0.22846,-0.22847 h 0.12349 c 0.0406,0 0.0788,0.0106 0.11206,0.0294 0.0339,-0.014 0.0716,-0.0202 0.10852,-0.0166 l 0.12943,0.0118 c 0.0136,10e-4 0.0268,0.004 0.0395,0.007 0.0521,-0.0377 0.11777,-0.0519 0.18094,-0.0385 l 0.11172,0.0235 c 0.10579,0.0223 0.18141,0.11549 0.18141,0.22356 v 1.15821 c 0.10429,0.0214 0.18231,0.11378 0.18231,0.22379 v 1.41889 l 1.07928,-0.15239 -0.0306,-1.35538 c -0.002,-0.087 0.0451,-0.16484 0.11755,-0.20505 v -1.08213 c 0,-0.12623 0.10224,-0.22847 0.22847,-0.22847 h 0.11755 c 0.0495,0 0.0952,0.0156 0.13251,0.0423 0.028,-0.0121 0.0586,-0.0187 0.0909,-0.0187 h 0.1 c 0.0233,0 0.046,0.003 0.0672,0.01 0.0296,-0.0139 0.0626,-0.0217 0.0976,-0.0217 h 0.12943 c 0.12612,0 0.22847,0.10224 0.22847,0.22847 v 1.06842 c 0.0952,0.0276 0.16461,0.11538 0.16461,0.21945 v 1.24754 h 0.0185 c 0.0899,0 0.17147,0.0528 0.20836,0.13491 l 1.1709,2.60521 c 0.0517,0.11504 2.6e-4,0.25029 -0.1147,0.30204 -0.0304,0.0136 -0.0623,0.0201 -0.0935,0.0201"
       id="path96"
       style="fill:#ffffff;stroke-width:0px" />
  </g>
</svg>
