<?xml version="1.0" encoding="UTF-8" standalone="no"?>
<!-- Created with Inkscape (http://www.inkscape.org/) -->

<svg
   width="24.069139mm"
   height="24.069151mm"
   viewBox="0 0 24.069139 24.069151"
   version="1.1"
   id="svg1"
   xmlns="http://www.w3.org/2000/svg"
   xmlns:svg="http://www.w3.org/2000/svg">
  <defs
     id="defs1" />
  <g
     id="layer1"
     transform="translate(-109.5375,-215.9)">
    <rect
       class="cls-1"
       x="109.65656"
       y="216.01906"
       width="23.83102"
       height="23.83102"
       id="rect1"
       style="fill:#002147;stroke-width:0px" />
    <path
       class="cls-4"
       d="m 114.87679,235.82842 c 0,0.91545 -0.70644,1.57956 -1.5875,1.57956 -0.88106,0 -1.5875,-0.67204 -1.5875,-1.54517 0,-0.87312 0.70644,-1.57956 1.5875,-1.57956 0.88106,0 1.5875,0.67204 1.5875,1.54781 v 0 z m -0.50271,0.0159 c 0,-0.83079 -0.40216,-1.41287 -1.08214,-1.41287 -0.73819,0 -1.08479,0.69585 -1.08479,1.41287 0,0.83079 0.40216,1.41023 1.08479,1.41023 0.73818,0 1.08214,-0.69585 1.08214,-1.41023 z"
       id="path1"
       style="fill:#ffffff;stroke-width:0px" />
    <path
       class="cls-4"
       d="m 124.57377,235.82842 c 0,0.91545 -0.70644,1.57956 -1.5875,1.57956 -0.88106,0 -1.5875,-0.67204 -1.5875,-1.54517 0,-0.87312 0.70644,-1.57956 1.5875,-1.57956 0.88106,0 1.5875,0.67204 1.5875,1.54781 v 0 z m -0.50535,0.0159 c 0,-0.83079 -0.40482,-1.41287 -1.0848,-1.41287 -0.73818,0 -1.08479,0.69585 -1.08479,1.41287 0,0.83079 0.40217,1.41023 1.08479,1.41023 0.73819,0 1.0848,-0.69585 1.0848,-1.41023 z"
       id="path2"
       style="fill:#ffffff;stroke-width:0px" />
    <path
       class="cls-4"
       d="m 125.80144,235.86017 h 0.37835 c 0.5715,0 0.6985,-0.35984 0.6985,-0.70644 0,-0.25929 -0.11642,-0.50536 -0.38629,-0.62177 -0.14288,-0.0582 -0.27781,-0.0582 -0.46302,-0.0582 h -0.22754 z m 0.69585,0.48683 c -0.17727,-0.25135 -0.24342,-0.34396 -0.46302,-0.34396 h -0.23548 v 1.02394 c 0,0.0847 0.0344,0.12435 0.127,0.14287 l 0.34396,0.0767 v 0.10848 h -1.35202 v -0.10848 l 0.31221,-0.0767 c 0.0926,-0.0238 0.127,-0.0582 0.127,-0.14287 v -2.37067 c 0,-0.0847 -0.0344,-0.11641 -0.127,-0.14287 l -0.31221,-0.0767 v -0.10848 h 1.32027 c 0.27781,0 0.47096,0.0265 0.62971,0.0847 0.32808,0.127 0.51329,0.43656 0.51329,0.73025 0,0.37041 -0.27781,0.68262 -0.73819,0.78845 v 0.0159 c 0.0926,0.0423 0.14288,0.10054 0.47096,0.52917 l 0.41275,0.54504 c 0.0582,0.0847 0.13494,0.13493 0.22754,0.15081 l 0.30163,0.0661 v 0.10847 h -0.72232 c -0.0847,0 -0.127,-0.0264 -0.20108,-0.127 l -0.62971,-0.88106 v 0 z"
       id="path3"
       style="fill:#ffffff;stroke-width:0px" />
    <path
       class="cls-4"
       d="m 120.57327,235.3654 h 0.127 v 1.00806 h -0.127 l -0.0767,-0.30163 c -0.0265,-0.10848 -0.0926,-0.15081 -0.19314,-0.15081 h -0.73025 v 1.1086 c 0,0.0847 0.0344,0.12436 0.127,0.14288 l 0.34395,0.0767 v 0.10848 h -1.35202 v -0.10848 l 0.30957,-0.0767 c 0.0926,-0.0238 0.127,-0.0582 0.127,-0.14288 v -2.37066 c 0,-0.0847 -0.0344,-0.11642 -0.127,-0.14288 l -0.30957,-0.0767 v -0.10848 h 2.286 v 0.75671 h -0.127 l -0.14287,-0.45508 c -0.0344,-0.11642 -0.0847,-0.15875 -0.18521,-0.15875 h -0.94985 v 1.30175 h 0.73025 c 0.10054,0 0.15875,-0.0423 0.19314,-0.15081 z"
       id="path4"
       style="fill:#ffffff;stroke-width:0px" />
    <path
       class="cls-4"
       d="m 128.29646,237.35771 v -0.10848 l 0.30956,-0.0767 c 0.0926,-0.0238 0.127,-0.0582 0.127,-0.14288 v -2.37066 c 0,-0.0847 -0.0344,-0.11642 -0.127,-0.14288 l -0.30956,-0.0767 v -0.10848 h 1.42081 c 0.38629,0 0.6641,0.0503 0.89165,0.15082 0.5715,0.26193 0.83079,0.82285 0.83079,1.37848 0,0.55562 -0.20109,1.04245 -0.71438,1.30968 -0.23548,0.127 -0.56356,0.18521 -0.99219,0.18521 h -1.43668 z m 0.88106,-2.88396 v 2.6035 c 0,0.10848 0.0238,0.13494 0.13494,0.13494 h 0.37041 c 0.3519,0 0.61384,-0.0503 0.79905,-0.18521 0.30956,-0.22754 0.45243,-0.63765 0.45243,-1.15888 0,-0.52123 -0.14287,-1.016 -0.56356,-1.25941 -0.17727,-0.10054 -0.40217,-0.13494 -0.75671,-0.13494 z"
       id="path5"
       style="fill:#ffffff;stroke-width:0px" />
    <path
       class="cls-4"
       d="m 116.06212,237.24658 v 0.10848 h -1.06627 v -0.10848 l 0.26723,-0.0661 c 0.10054,-0.0265 0.16934,-0.0582 0.23548,-0.13494 l 0.9234,-1.15888 -0.9234,-1.22766 c -0.0582,-0.0847 -0.13494,-0.127 -0.22754,-0.15081 l -0.25135,-0.0661 v -0.10848 h 1.3282 v 0.10848 l -0.28575,0.0582 c -0.10054,0.0159 -0.0767,0.0582 -0.0264,0.127 l 0.67998,0.97366 h 0.0159 l 0.6985,-0.97366 c 0.0503,-0.0661 0.0662,-0.0926 -0.0238,-0.11642 l -0.26988,-0.0661 v -0.10848 h 1.06627 v 0.10848 l -0.26987,0.0661 c -0.10054,0.0265 -0.16669,0.0582 -0.23548,0.13494 l -0.87313,1.10067 0.97367,1.28587 c 0.0582,0.0847 0.13494,0.12435 0.22754,0.15081 l 0.25136,0.0662 v 0.10848 h -1.32821 v -0.10848 l 0.28575,-0.0582 c 0.10054,-0.0159 0.0847,-0.0503 0.0344,-0.11906 l -0.73818,-1.04246 h -0.0159 l -0.74877,1.03452 c -0.0503,0.0661 -0.0661,0.09 0.0238,0.11642 l 0.26988,0.0661 v 0 z"
       id="path6"
       style="fill:#ffffff;stroke-width:0px" />
    <path
       class="cls-4"
       d="m 112.87919,232.90742 c -0.0847,0.0847 -0.20902,0.14023 -0.38365,0.14023 -0.15346,0 -0.29369,-0.0476 -0.38894,-0.14288 -0.12964,-0.12965 -0.12435,-0.29633 -0.12435,-0.4736 v -0.84138 h 0.17198 v 0.90488 c 0,0.11377 -0.003,0.22489 0.0847,0.31485 0.0609,0.0609 0.1561,0.0953 0.26458,0.0953 0.10848,0 0.1905,-0.037 0.24342,-0.09 0.0979,-0.0979 0.0926,-0.20637 0.0926,-0.46302 v -0.75935 h 0.16933 v 0.71437 c 0,0.26988 0.0106,0.46831 -0.127,0.6059 z"
       id="path7"
       style="fill:#ffffff;stroke-width:0px" />
    <path
       class="cls-4"
       d="m 114.40319,233.02119 -0.69057,-1.17475 0.005,1.17475 h -0.15875 v -1.43404 h 0.17462 l 0.69321,1.18004 -0.005,-1.18004 h 0.15875 v 1.43404 z"
       id="path8"
       style="fill:#ffffff;stroke-width:0px" />
    <path
       class="cls-4"
       d="m 115.17842,233.02119 v -1.43404 h 0.17198 v 1.43404 z"
       id="path9"
       style="fill:#ffffff;stroke-width:0px" />
    <path
       class="cls-4"
       d="m 116.42196,233.02119 h -0.19844 l -0.49477,-1.43404 h 0.17992 l 0.41804,1.2647 0.43127,-1.2647 h 0.16669 z"
       id="path10"
       style="fill:#ffffff;stroke-width:0px" />
    <path
       class="cls-4"
       d="m 117.31625,233.02119 v -1.43404 h 0.77787 v 0.14287 h -0.61118 v 0.4736 h 0.5715 v 0.14023 h -0.5715 v 0.53182 H 118.11 v 0.14816 h -0.7964 z"
       id="path11"
       style="fill:#ffffff;stroke-width:0px" />
    <path
       class="cls-4"
       d="m 119.20273,231.80146 c -0.082,-0.082 -0.18786,-0.0794 -0.30427,-0.0794 h -0.15875 v 0.53446 h 0.0582 c 0.14552,0 0.30162,0.008 0.39952,-0.09 0.0476,-0.0476 0.0741,-0.11377 0.0741,-0.18785 0,-0.0794 -0.0318,-0.14552 -0.0661,-0.17992 z m 0.1561,1.21973 -0.16404,-0.37042 c -0.10319,-0.22754 -0.14817,-0.25135 -0.35719,-0.25135 h -0.10054 v 0.62441 h -0.16933 v -1.43404 h 0.30956 c 0.1905,0 0.33602,0 0.44715,0.11113 0.0714,0.0714 0.11112,0.16668 0.11112,0.28575 0,0.10054 -0.0291,0.18256 -0.09,0.24606 -0.0529,0.0556 -0.13758,0.10319 -0.23018,0.11377 0.0503,0.003 0.0926,0.0291 0.11906,0.0582 0.0397,0.0397 0.0661,0.0979 0.10848,0.1905 l 0.1905,0.42598 h -0.17992 z"
       id="path12"
       style="fill:#ffffff;stroke-width:0px" />
    <path
       class="cls-4"
       d="m 121.21092,233.02119 v -1.43404 h 0.17198 v 1.43404 z"
       id="path13"
       style="fill:#ffffff;stroke-width:0px" />
    <path
       class="cls-4"
       d="m 122.36715,231.73002 v 1.29117 h -0.17198 v -1.29117 h -0.42598 v -0.14287 h 1.02393 v 0.14287 h -0.42333 z"
       id="path14"
       style="fill:#ffffff;stroke-width:0px" />
    <path
       class="cls-4"
       d="m 123.61598,232.45233 v 0.56621 h -0.16934 v -0.56621 l -0.45508,-0.86783 h 0.19579 l 0.3519,0.67204 0.34396,-0.67204 h 0.18785 z"
       id="path15"
       style="fill:#ffffff;stroke-width:0px" />
    <path
       class="cls-4"
       d="m 125.67973,231.70621 c -0.28046,0 -0.46302,0.23812 -0.46302,0.59531 0,0.35719 0.20373,0.59796 0.47096,0.59796 0.29897,0 0.46566,-0.254 0.46566,-0.60854 0,-0.35454 -0.19579,-0.58209 -0.47625,-0.58209 z m 0,1.34144 c -0.37042,0 -0.64294,-0.30692 -0.64294,-0.73819 0,-0.43127 0.26723,-0.74877 0.65617,-0.74877 0.38893,0 0.64029,0.30427 0.64029,0.73818 0,0.43392 -0.26458,0.75142 -0.65352,0.75142 z"
       id="path16"
       style="fill:#ffffff;stroke-width:0px" />
    <path
       class="cls-4"
       d="m 126.97354,231.73002 v 0.4736 h 0.55298 v 0.14023 h -0.55298 v 0.67734 h -0.17198 v -1.43404 h 0.762 v 0.14287 z"
       id="path17"
       style="fill:#ffffff;stroke-width:0px" />
    <path
       class="cls-4"
       d="m 119.88535,231.9364 c 0,-0.21961 0.17727,-0.37571 0.43657,-0.37571 0.25929,0 0.38629,0.13493 0.39952,0.14816 l -0.0847,0.10055 c -0.0318,-0.0238 -0.14552,-0.10848 -0.30427,-0.10848 -0.18256,0 -0.2831,0.0952 -0.2831,0.22489 0,0.0635 0.0264,0.10848 0.0661,0.14552 0.0503,0.045 0.12171,0.0767 0.19844,0.11113 0.0952,0.045 0.22754,0.0926 0.31485,0.18521 0.0609,0.0635 0.10848,0.14552 0.10848,0.25929 0,0.23812 -0.16404,0.42069 -0.46302,0.42069 -0.254,0 -0.41275,-0.14023 -0.42862,-0.15346 l 0.0794,-0.11642 c 0.0397,0.0291 0.20108,0.12435 0.34661,0.12435 0.21431,0 0.29633,-0.11906 0.29633,-0.25929 0,-0.0661 -0.0291,-0.11906 -0.0741,-0.16139 -0.0661,-0.0635 -0.16934,-0.10848 -0.26459,-0.15082 -0.0952,-0.045 -0.18785,-0.09 -0.254,-0.15875 -0.0423,-0.045 -0.0873,-0.11906 -0.0873,-0.23283 z"
       id="path18"
       style="fill:#ffffff;stroke-width:0px" />
    <path
       class="cls-4"
       d="m 126.46819,221.89281 c 0,-0.17991 -0.0609,-0.32544 -0.19315,-0.40216 -0.082,-0.0476 -0.19579,-0.0635 -0.33337,-0.0635 h -1.00278 c 0,0 0,2.0267 0,2.0267 h 1.09273 c 0.25136,0 0.39952,0.0556 0.41275,0.28311 h 0.0238 v -1.8415 z"
       id="path19"
       style="fill:#ffffff;stroke-width:0px" />
    <path
       class="cls-4"
       d="m 126.60842,221.89281 c 0,-0.17991 0.0609,-0.32544 0.19314,-0.40216 0.082,-0.0476 0.19579,-0.0635 0.33338,-0.0635 h 1.0107 c 0,0 0,2.0267 0,2.0267 h -1.09802 c -0.25135,0 -0.39952,0.0556 -0.41275,0.28311 h -0.0238 v -1.8415 z"
       id="path20"
       style="fill:#ffffff;stroke-width:0px" />
    <path
       class="cls-4"
       d="m 128.35202,221.57531 v 2.14048 h -1.55046 l -0.0185,0.045 c -0.0265,0.0661 -0.0767,0.12965 -0.24606,0.12965 -0.16934,0 -0.21696,-0.0609 -0.24342,-0.12965 l -0.0185,-0.045 h -1.54781 v -2.14048 H 124.587 v 0.0661 l -0.13494,-0.0423 c -0.0159,-0.0529 -0.0635,-0.0926 -0.12171,-0.0926 -0.0714,0 -0.127,0.0582 -0.127,0.127 0,0.0688 0.0582,0.127 0.127,0.127 0.0318,0 0.0582,-0.0106 0.082,-0.0291 l 0.17463,0.0529 v 0.17198 l -0.13229,-0.0238 c -0.0185,-0.045 -0.0635,-0.0767 -0.11642,-0.0767 -0.0714,0 -0.127,0.0582 -0.127,0.127 0,0.0688 0.0582,0.127 0.127,0.127 0.037,0 0.0688,-0.0159 0.0926,-0.0397 l 0.15611,0.0291 v 0.17462 l -0.13758,-0.005 c -0.0212,-0.037 -0.0635,-0.0635 -0.10848,-0.0635 -0.0714,0 -0.127,0.0582 -0.127,0.127 0,0.0688 0.0582,0.127 0.127,0.127 0.0423,0 0.0794,-0.0212 0.10318,-0.0529 l 0.14288,0.005 v 0.1905 l -0.14023,0.005 c -0.0238,-0.0318 -0.0609,-0.0529 -0.10319,-0.0529 -0.0714,0 -0.127,0.0582 -0.127,0.127 0,0.0688 0.0582,0.127 0.127,0.127 0.045,0 0.0873,-0.0238 0.10848,-0.0608 l 0.13494,-0.005 v 0.17463 l -0.15346,0.0265 c -0.0238,-0.0238 -0.0556,-0.0397 -0.0926,-0.0397 -0.0714,0 -0.127,0.0582 -0.127,0.127 0,0.0688 0.0582,0.127 0.127,0.127 0.0529,0 0.0979,-0.0318 0.11641,-0.0767 l 0.12965,-0.0212 v 0.17198 l -0.16933,0.0503 c -0.0212,-0.0185 -0.0503,-0.0291 -0.082,-0.0291 -0.0714,0 -0.127,0.0582 -0.127,0.127 0,0.0688 0.0582,0.127 0.127,0.127 0.0582,0 0.10584,-0.0397 0.12171,-0.0926 l 0.127,-0.0397 v 0.16669 l -0.18521,0.0794 c -0.0212,-0.0132 -0.045,-0.0212 -0.0714,-0.0212 -0.0714,0 -0.127,0.0582 -0.127,0.127 0,0.0688 0.0582,0.127 0.127,0.127 0.0635,0 0.11377,-0.045 0.12435,-0.10583 l 0.12965,-0.0556 v 0.15346 h 1.60337 c 0.0662,0.11377 0.17727,0.17198 0.34925,0.17198 0.17198,0 0.28311,-0.0582 0.34925,-0.17198 h 1.60602 v -2.28071 h -0.14023 z"
       id="path21"
       style="fill:#ffffff;stroke-width:0px" />
    <path
       class="cls-4"
       d="m 125.48394,220.86094 c -0.3228,0 -0.58738,0.0503 -0.58738,0.11377 0,0.0635 0.26194,0.11377 0.58738,0.11377 0.32543,0 0.58737,-0.0503 0.58737,-0.11377 0,-0.0635 -0.26194,-0.11377 -0.58737,-0.11377 z"
       id="path22"
       style="fill:#ffffff;stroke-width:0px" />
    <path
       class="cls-4"
       d="m 126.29092,220.15979 -0.33867,0.23813 v 0.0238 c 0,0 0.0767,0.037 0.0767,0.037 0.0159,0.008 0.0159,0.0212 0.008,0.0291 l -0.21167,0.17992 h -0.0212 c 0,0 -0.15081,-0.22489 -0.15081,-0.22489 -0.0106,-0.0132 -0.008,-0.0291 0.0106,-0.0318 l 0.10054,-0.0159 v -0.0265 l -0.26193,-0.37041 h -0.0423 l -0.26193,0.37041 v 0.0265 l 0.10054,0.0159 c 0.0185,0.003 0.0212,0.0185 0.0106,0.0318 l -0.15081,0.22225 h -0.0212 c 0,0 -0.19844,-0.17728 -0.19844,-0.17728 -0.008,-0.008 -0.008,-0.0212 0.008,-0.0291 l 0.0794,-0.037 v -0.0238 c 0,0 -0.35454,-0.23813 -0.35454,-0.23813 l -0.0291,0.0106 0.20638,0.63236 c 0.10583,-0.0476 0.3466,-0.0794 0.6297,-0.082 0.28311,0 0.52388,0.0344 0.62971,0.082 l 0.20638,-0.63236 -0.0291,-0.0106 z"
       id="path23"
       style="fill:#ffffff;stroke-width:0px" />
    <path
       class="cls-4"
       d="m 126.53698,225.10221 c -0.32279,0 -0.58738,0.0503 -0.58738,0.11377 0,0.0635 0.26194,0.11377 0.58738,0.11377 0.32544,0 0.58737,-0.0503 0.58737,-0.11377 0,-0.0635 -0.26193,-0.11377 -0.58737,-0.11377 z"
       id="path24"
       style="fill:#ffffff;stroke-width:0px" />
    <path
       class="cls-4"
       d="m 127.34396,224.40106 -0.33867,0.23813 v 0.0238 c 0,0 0.0767,0.037 0.0767,0.037 0.0159,0.008 0.0159,0.0212 0.008,0.0291 l -0.21167,0.17991 h -0.0212 c 0,0 -0.15081,-0.22489 -0.15081,-0.22489 -0.0106,-0.0132 -0.008,-0.0291 0.0106,-0.0317 l 0.10055,-0.0159 v -0.0265 l -0.26194,-0.37041 h -0.0423 l -0.26194,0.37041 v 0.0265 l 0.10054,0.0159 c 0.0185,0.003 0.0212,0.0185 0.0106,0.0317 l -0.15081,0.22225 h -0.0212 c 0,0 -0.19843,-0.17727 -0.19843,-0.17727 -0.008,-0.008 -0.008,-0.0212 0.008,-0.0291 l 0.0794,-0.037 v -0.0238 c 0,0 -0.35454,-0.23813 -0.35454,-0.23813 l -0.0291,0.0106 0.20638,0.63235 c 0.10583,-0.0476 0.3466,-0.0794 0.62971,-0.082 0.2831,0 0.52387,0.0344 0.6297,0.082 l 0.20638,-0.63235 -0.0291,-0.0106 z"
       id="path25"
       style="fill:#ffffff;stroke-width:0px" />
    <path
       class="cls-4"
       d="m 127.58473,220.86094 c -0.32279,0 -0.58738,0.0503 -0.58738,0.11377 0,0.0635 0.26194,0.11377 0.58738,0.11377 0.32544,0 0.58737,-0.0503 0.58737,-0.11377 0,-0.0635 -0.26193,-0.11377 -0.58737,-0.11377 z"
       id="path26"
       style="fill:#ffffff;stroke-width:0px" />
    <path
       class="cls-4"
       d="m 128.39171,220.15979 -0.33867,0.23813 v 0.0238 c 0,0 0.0767,0.037 0.0767,0.037 0.0159,0.008 0.0159,0.0212 0.008,0.0291 l -0.21167,0.17992 h -0.0212 c 0,0 -0.15081,-0.22489 -0.15081,-0.22489 -0.0106,-0.0132 -0.008,-0.0291 0.0106,-0.0318 l 0.10055,-0.0159 v -0.0265 l -0.26194,-0.37041 h -0.0423 l -0.26194,0.37041 v 0.0265 l 0.10054,0.0159 c 0.0185,0.003 0.0212,0.0185 0.0106,0.0318 l -0.15081,0.22225 h -0.0212 c 0,0 -0.19843,-0.17992 -0.19843,-0.17992 -0.008,-0.008 -0.008,-0.0212 0.008,-0.0291 l 0.0794,-0.0344 v -0.0238 c 0,0 -0.35454,-0.23813 -0.35454,-0.23813 l -0.0291,0.0106 0.20638,0.63236 c 0.10583,-0.0476 0.3466,-0.0794 0.62971,-0.082 0.2831,0 0.52387,0.0344 0.6297,0.082 l 0.20638,-0.63236 -0.0291,-0.0106 z"
       id="path27"
       style="fill:#ffffff;stroke-width:0px" />
    <path
       class="cls-1"
       d="m 125.19819,221.74729 c 0.0556,0 0.10054,0.0106 0.12964,0.0397 0.0212,0.0212 0.0397,0.0529 0.0397,0.0926 0,0.11113 -0.0847,0.15875 -0.18785,0.15875 h -0.11642 v -0.0185 c 0.0318,-0.003 0.037,-0.005 0.037,-0.0529 v -0.14817 c 0,-0.0476 -0.003,-0.0503 -0.0318,-0.0529 v -0.0185 z m -0.0212,0.21961 c 0,0.0397 0.0106,0.0476 0.0318,0.0476 0.0397,0 0.0767,-0.0423 0.0767,-0.12171 0,-0.0952 -0.0476,-0.12171 -0.0873,-0.12171 -0.0106,0 -0.0159,0 -0.0185,0.003 0,0 0,0.0106 0,0.0212 v 0.17198 z"
       id="path28"
       style="fill:#002147;stroke-width:0px" />
    <path
       class="cls-1"
       d="m 125.70619,221.88752 c 0,0.0952 -0.0662,0.1561 -0.15082,0.1561 -0.09,0 -0.14816,-0.0661 -0.14816,-0.14816 0,-0.0714 0.0476,-0.15611 0.1561,-0.15611 0.082,0 0.14552,0.0609 0.14552,0.14817 z m -0.21696,-0.005 c 0,0.082 0.0291,0.14023 0.0741,0.14023 0.0397,0 0.0582,-0.037 0.0582,-0.11906 0,-0.09 -0.0318,-0.14023 -0.0714,-0.14023 -0.0344,0 -0.0635,0.0397 -0.0635,0.11641 z"
       id="path29"
       style="fill:#002147;stroke-width:0px" />
    <path
       class="cls-1"
       d="m 126.10042,221.74729 v 0.0185 c -0.0344,0.003 -0.037,0.005 -0.0344,0.0529 l 0.005,0.15081 c 0,0.0503 0,0.0503 0.0344,0.0529 v 0.0185 h -0.14023 v -0.0185 c 0.0344,-0.003 0.0344,-0.005 0.0344,-0.0529 v -0.1561 h -0.003 l -0.0873,0.22489 h -0.0238 l -0.082,-0.20902 v 0 0.0979 c -0.005,0.0397 -0.005,0.0608 0,0.0741 0,0.0159 0.0106,0.0212 0.0397,0.0238 v 0.0185 h -0.11113 v -0.0185 c 0.0212,0 0.0291,-0.005 0.0318,-0.0238 0,-0.0132 0.005,-0.037 0.008,-0.0794 l 0.005,-0.09 c 0.003,-0.0556 0,-0.0609 -0.0344,-0.0635 v -0.0185 h 0.10583 l 0.0794,0.17727 0.0688,-0.17727 h 0.10848 z"
       id="path30"
       style="fill:#002147;stroke-width:0px" />
    <path
       class="cls-1"
       d="m 126.24329,221.9669 c 0,0.0476 0.003,0.0503 0.0344,0.0529 v 0.0185 h -0.14552 v -0.0185 c 0.0318,-0.003 0.0344,-0.005 0.0344,-0.0529 v -0.14817 c 0,-0.0476 -0.003,-0.0503 -0.0344,-0.0529 v -0.0185 h 0.14552 v 0.0185 c -0.0318,0 -0.0344,0.005 -0.0344,0.0529 z"
       id="path31"
       style="fill:#002147;stroke-width:0px" />
    <path
       class="cls-1"
       d="m 125.52627,222.57544 h -0.037 l -0.16404,-0.21167 v 0 0.082 c 0,0.0476 0,0.0714 0.003,0.0847 0,0.0159 0.0132,0.0212 0.045,0.0238 v 0.0185 h -0.11112 v -0.0185 c 0.0185,0 0.0318,-0.008 0.0344,-0.0238 0,-0.0132 0.003,-0.0397 0.003,-0.0847 v -0.082 c 0,-0.0317 0,-0.0397 -0.0106,-0.0503 -0.008,-0.0106 -0.0185,-0.0132 -0.0344,-0.0132 v -0.0185 h 0.0979 l 0.14817,0.18521 v 0 -0.0609 c 0,-0.0476 0,-0.0714 -0.003,-0.0847 0,-0.0159 -0.0132,-0.0212 -0.045,-0.0238 v -0.0185 h 0.11377 v 0.0185 c -0.0212,0 -0.0344,0.008 -0.037,0.0238 0,0.0132 -0.003,0.0397 -0.003,0.0847 v 0.16669 z"
       id="path32"
       style="fill:#002147;stroke-width:0px" />
    <path
       class="cls-1"
       d="m 125.70619,222.57544 c -0.0318,-0.0794 -0.0714,-0.1905 -0.09,-0.23284 -0.0159,-0.0397 -0.0238,-0.0397 -0.045,-0.0423 v -0.0185 h 0.14552 v 0.0185 h -0.0159 c -0.0159,0.003 -0.0159,0.008 -0.0106,0.0238 0.008,0.0238 0.0423,0.11377 0.0609,0.15611 0.0132,-0.037 0.0423,-0.12436 0.0503,-0.14552 0.0106,-0.0265 0.008,-0.0317 -0.0132,-0.0344 h -0.0132 v -0.0185 h 0.10848 v 0.0185 c -0.0265,0.003 -0.0318,0.005 -0.0503,0.045 0,0.005 -0.0582,0.13758 -0.09,0.23019 h -0.0344 z"
       id="path33"
       style="fill:#002147;stroke-width:0px" />
    <path
       class="cls-1"
       d="m 125.90727,222.48019 c 0.0106,0.0265 0.0344,0.0767 0.0794,0.0767 0.0238,0 0.0423,-0.0159 0.0423,-0.045 0,-0.0265 -0.0185,-0.0423 -0.045,-0.0529 h -0.008 c -0.037,-0.0212 -0.0794,-0.0423 -0.0794,-0.09 0,-0.0503 0.037,-0.0926 0.10583,-0.0926 0.0132,0 0.0291,0 0.0423,0.005 0.0106,0 0.0185,0.005 0.0238,0.005 0,0.0185 0.005,0.0397 0.0106,0.0688 h -0.0185 c -0.0106,-0.0265 -0.0265,-0.0582 -0.0609,-0.0582 -0.0238,0 -0.0397,0.0185 -0.0397,0.0397 0,0.0212 0.0185,0.0344 0.045,0.0476 l 0.0106,0.005 c 0.0423,0.0185 0.0767,0.0423 0.0767,0.0926 0,0.0556 -0.045,0.0952 -0.11377,0.0952 -0.0185,0 -0.037,-0.003 -0.0476,-0.008 -0.0132,-0.005 -0.0238,-0.008 -0.0291,-0.0106 -0.003,-0.0212 -0.0106,-0.045 -0.0159,-0.0741 l 0.0185,-0.005 z"
       id="path34"
       style="fill:#002147;stroke-width:0px" />
    <path
       class="cls-1"
       d="m 125.32783,223.03846 c 0,0.0476 0.003,0.0503 0.0344,0.0529 v 0.0185 h -0.14552 v -0.0185 c 0.0317,-0.003 0.0344,-0.005 0.0344,-0.0529 v -0.14817 c 0,-0.0476 -0.003,-0.0503 -0.0344,-0.0529 v -0.0185 h 0.14552 v 0.0185 c -0.0318,0.003 -0.0344,0.005 -0.0344,0.0529 z"
       id="path35"
       style="fill:#002147;stroke-width:0px" />
    <path
       class="cls-1"
       d="m 125.50246,223.04375 c 0,0.0238 0,0.0344 0.008,0.0397 0.008,0.003 0.0185,0.005 0.0318,0.005 0.0132,0 0.0344,0 0.0423,-0.0132 0.008,-0.008 0.0159,-0.0212 0.0212,-0.045 h 0.0185 c -0.003,0.0212 -0.0132,0.0661 -0.0159,0.0794 h -0.22225 v -0.0185 c 0.0344,-0.003 0.037,-0.005 0.037,-0.0529 v -0.14817 c 0,-0.0476 -0.003,-0.0503 -0.0344,-0.0529 v -0.0185 h 0.14552 v 0.0185 c -0.0318,0.003 -0.0344,0.005 -0.0344,0.0529 v 0.15346 z"
       id="path36"
       style="fill:#002147;stroke-width:0px" />
    <path
       class="cls-1"
       d="m 125.75381,223.04375 c 0,0.0238 0,0.0344 0.008,0.0397 0.008,0.003 0.0185,0.005 0.0317,0.005 0.0132,0 0.0344,0 0.0423,-0.0132 0.008,-0.008 0.0159,-0.0212 0.0212,-0.045 h 0.0185 c 0,0.0212 -0.0132,0.0661 -0.0159,0.0794 h -0.22225 v -0.0185 c 0.0344,-0.003 0.0371,-0.005 0.0371,-0.0529 v -0.14817 c 0,-0.0476 -0.003,-0.0503 -0.0344,-0.0529 v -0.0185 h 0.14552 v 0.0185 c -0.0318,0.003 -0.0344,0.005 -0.0344,0.0529 v 0.15346 z"
       id="path37"
       style="fill:#002147;stroke-width:0px" />
    <path
       class="cls-1"
       d="m 125.96548,223.11254 c -0.0318,-0.0794 -0.0714,-0.1905 -0.09,-0.23283 -0.0159,-0.037 -0.0238,-0.0397 -0.045,-0.0423 v -0.0185 h 0.14552 v 0.0185 h -0.0159 c -0.0159,0.003 -0.0159,0.008 -0.0106,0.0238 0.008,0.0238 0.0423,0.11377 0.0609,0.1561 0.0132,-0.037 0.0423,-0.12435 0.0503,-0.14552 0.0106,-0.0265 0.008,-0.0317 -0.0132,-0.0344 h -0.0132 v -0.0185 h 0.10848 v 0.0185 c -0.0265,0.003 -0.0318,0.005 -0.0503,0.045 -0.003,0.005 -0.0582,0.13759 -0.09,0.23019 h -0.0344 z"
       id="path38"
       style="fill:#002147;stroke-width:0px" />
    <path
       class="cls-1"
       d="m 127.16669,221.74729 v 0.0185 c -0.0344,0.003 -0.0371,0.005 -0.0344,0.0529 l 0.005,0.15081 c 0,0.0503 0,0.0503 0.0344,0.0529 v 0.0185 h -0.14023 v -0.0185 c 0.0344,-0.003 0.0344,-0.005 0.0344,-0.0529 v -0.1561 h -0.003 l -0.0873,0.22489 h -0.0238 l -0.082,-0.20902 v 0 0.0979 c -0.005,0.0397 -0.005,0.0608 0,0.0741 0,0.0159 0.0106,0.0212 0.0397,0.0238 v 0.0185 h -0.11112 v -0.0185 c 0.0212,0 0.0291,-0.005 0.0318,-0.0238 0,-0.0132 0.005,-0.037 0.008,-0.0794 l 0.005,-0.09 c 0.003,-0.0556 0,-0.0609 -0.0344,-0.0635 v -0.0185 h 0.10583 l 0.0794,0.17727 0.0688,-0.17727 h 0.10848 z"
       id="path39"
       style="fill:#002147;stroke-width:0px" />
    <path
       class="cls-1"
       d="m 127.30956,221.9669 c 0,0.0476 0.003,0.0503 0.0344,0.0529 v 0.0185 h -0.14552 v -0.0185 c 0.0317,-0.003 0.0344,-0.005 0.0344,-0.0529 v -0.14817 c 0,-0.0476 -0.003,-0.0503 -0.0344,-0.0529 v -0.0185 h 0.14552 v 0.0185 c -0.0318,0 -0.0344,0.005 -0.0344,0.0529 z"
       id="path40"
       style="fill:#002147;stroke-width:0px" />
    <path
       class="cls-1"
       d="m 127.64294,222.04098 h -0.0397 l -0.16404,-0.21167 v 0 0.082 c 0,0.0476 0,0.0714 0.003,0.0847 0,0.0159 0.0132,0.0212 0.045,0.0238 v 0.0185 h -0.11112 v -0.0185 c 0.0185,0 0.0318,-0.008 0.0344,-0.0238 0,-0.0132 0.003,-0.0397 0.003,-0.0847 v -0.082 c 0,-0.0317 0,-0.0397 -0.0106,-0.0503 -0.008,-0.0106 -0.0185,-0.0132 -0.0344,-0.0132 v -0.0185 h 0.0979 l 0.14816,0.18521 v 0 -0.0609 c 0,-0.0476 0,-0.0714 -0.003,-0.0847 0,-0.0159 -0.0132,-0.0212 -0.045,-0.0238 v -0.0185 h 0.11377 v 0.0185 c -0.0212,0 -0.0344,0.008 -0.037,0.0238 0,0.0132 -0.003,0.0397 -0.003,0.0847 v 0.16668 z"
       id="path41"
       style="fill:#002147;stroke-width:0px" />
    <path
       class="cls-1"
       d="m 127.82814,222.01981 h 0.0132 c 0.0159,-0.005 0.0185,-0.008 0.0106,-0.0238 l -0.0159,-0.045 h -0.0741 l -0.0132,0.0423 c -0.005,0.0185 -0.005,0.0238 0.0159,0.0265 h 0.0132 v 0.0185 h -0.10318 v -0.0185 c 0.0238,-0.003 0.0291,-0.005 0.045,-0.0423 l 0.09,-0.23019 0.0318,-0.005 0.0291,0.0847 c 0.0185,0.0529 0.0397,0.10583 0.0556,0.15081 0.0132,0.0397 0.0212,0.0423 0.045,0.045 v 0.0185 h -0.14023 v -0.0185 z m -0.0556,-0.0979 h 0.0582 l -0.0291,-0.0847 v 0 l -0.0265,0.0847 z"
       id="path42"
       style="fill:#002147;stroke-width:0px" />
    <path
       class="cls-1"
       d="m 127.16139,222.50135 c 0,0.0476 0.003,0.0503 0.0423,0.0529 v 0.0185 h -0.15611 v -0.0185 c 0.0344,-0.003 0.0397,-0.005 0.0397,-0.0529 v -0.19579 h -0.008 c -0.0291,0 -0.0423,0.005 -0.0503,0.0132 -0.005,0.008 -0.0106,0.0185 -0.0159,0.0423 h -0.0185 c 0,-0.037 0.005,-0.0688 0.005,-0.0899 h 0.0132 c 0,0 0.0106,0.0106 0.0238,0.0106 h 0.17727 c 0,0 0.0132,-0.003 0.0212,-0.0106 h 0.0132 c 0,0.0185 0.003,0.0556 0.005,0.0899 h -0.0185 c -0.008,-0.0265 -0.0106,-0.037 -0.0185,-0.045 -0.008,-0.008 -0.0212,-0.0106 -0.045,-0.0106 h -0.0106 z"
       id="path43"
       style="fill:#002147;stroke-width:0px" />
    <path
       class="cls-1"
       d="m 127.39687,222.50135 c 0,0.0476 0.003,0.0503 0.0344,0.0529 v 0.0185 h -0.14552 v -0.0185 c 0.0318,-0.003 0.0344,-0.005 0.0344,-0.0529 v -0.14816 c 0,-0.0476 -0.003,-0.0503 -0.0344,-0.0529 v -0.0185 h 0.14552 v 0.0185 c -0.0318,0.003 -0.0344,0.005 -0.0344,0.0529 z"
       id="path44"
       style="fill:#002147;stroke-width:0px" />
    <path
       class="cls-1"
       d="m 127.76729,222.42462 c 0,0.0952 -0.0662,0.15611 -0.15081,0.15611 -0.09,0 -0.14817,-0.0661 -0.14817,-0.14817 0,-0.0714 0.0476,-0.1561 0.15611,-0.1561 0.082,0 0.14552,0.0609 0.14552,0.14816 z m -0.21696,-0.008 c 0,0.082 0.0291,0.14023 0.0741,0.14023 0.0397,0 0.0582,-0.037 0.0582,-0.11907 0,-0.0899 -0.0318,-0.14023 -0.0714,-0.14023 -0.0344,0 -0.0635,0.0397 -0.0635,0.11642 z"
       id="path45"
       style="fill:#002147;stroke-width:0px" />
    <path
       class="cls-1"
       d="m 127.29369,222.81885 v 0.0185 c -0.0344,0.003 -0.0344,0.005 -0.0344,0.0529 l 0.005,0.15081 c 0,0.0503 0,0.0503 0.0344,0.0529 v 0.0185 h -0.14023 v -0.0185 c 0.0344,-0.003 0.0344,-0.005 0.0344,-0.0529 v -0.1561 h -0.003 l -0.0873,0.2249 h -0.0238 l -0.082,-0.20903 v 0 0.0979 c -0.005,0.0397 -0.005,0.0608 0,0.0741 0,0.0159 0.0106,0.0212 0.0397,0.0238 v 0.0185 h -0.11112 v -0.0185 c 0.0212,0 0.0291,-0.005 0.0317,-0.0238 0,-0.0132 0.005,-0.037 0.008,-0.0794 l 0.005,-0.09 c 0.003,-0.0556 0,-0.0608 -0.0344,-0.0635 v -0.0185 h 0.10583 l 0.0794,0.17727 0.0688,-0.17727 h 0.10848 z"
       id="path46"
       style="fill:#002147;stroke-width:0px" />
    <path
       class="cls-1"
       d="m 127.36248,222.89029 c 0,-0.0476 -0.003,-0.0503 -0.0344,-0.0529 v -0.0185 h 0.21167 c 0,0 0.003,0.0397 0.005,0.0741 h -0.0185 c -0.005,-0.0212 -0.0106,-0.0318 -0.0159,-0.0397 -0.008,-0.008 -0.0212,-0.0106 -0.045,-0.0106 h -0.008 c -0.0159,0 -0.0185,0 -0.0185,0.0159 v 0.0873 h 0.0212 c 0.0397,0 0.0397,0 0.045,-0.037 h 0.0185 v 0.10584 h -0.0185 c -0.005,-0.0397 -0.005,-0.0423 -0.045,-0.0423 h -0.0212 v 0.0741 c 0,0.0238 0,0.0344 0.008,0.0397 0.008,0.003 0.0185,0.005 0.0318,0.005 0.0185,0 0.037,-0.003 0.0476,-0.0132 0.008,-0.008 0.0159,-0.0238 0.0212,-0.045 h 0.0185 c 0,0.0238 -0.0106,0.0714 -0.0159,0.082 h -0.22754 v -0.0185 c 0.0344,-0.003 0.037,-0.005 0.037,-0.0529 v -0.14817 z"
       id="path47"
       style="fill:#002147;stroke-width:0px" />
    <path
       class="cls-1"
       d="m 127.72496,223.09137 h 0.0132 c 0.0159,-0.005 0.0185,-0.008 0.0106,-0.0238 l -0.0159,-0.045 h -0.0741 l -0.0132,0.0423 c -0.005,0.0185 -0.005,0.0238 0.0159,0.0265 h 0.0132 v 0.0185 h -0.10319 v -0.0185 c 0.0238,-0.003 0.0291,-0.005 0.045,-0.0423 l 0.09,-0.23019 0.0318,-0.005 0.0291,0.0847 c 0.0185,0.0529 0.0397,0.10583 0.0556,0.15081 0.0132,0.0397 0.0212,0.0397 0.045,0.045 v 0.0185 h -0.14023 v -0.0185 z m -0.0582,-0.0953 h 0.0582 l -0.0291,-0.0847 v 0 l -0.0265,0.0847 z"
       id="path48"
       style="fill:#002147;stroke-width:0px" />
    <path
       class="cls-4"
       d="m 126.13481,226.70294 c 0,0.0635 -0.0529,0.11641 -0.11642,0.11641 -0.0635,0 -0.11641,-0.0529 -0.11641,-0.11641 0,-0.0635 0.0529,-0.11642 0.11641,-0.11642 0.0635,0 0.11642,0.0529 0.11642,0.11642 z"
       id="path49"
       style="fill:#ffffff;stroke-width:0px" />
    <path
       class="cls-4"
       d="m 127.3175,226.89608 c 0,0.0635 -0.0529,0.11642 -0.11642,0.11642 -0.0635,0 -0.11641,-0.0529 -0.11641,-0.11642 0,-0.0635 0.0529,-0.11641 0.11641,-0.11641 0.0635,0 0.11642,0.0529 0.11642,0.11641 z"
       id="path50"
       style="fill:#ffffff;stroke-width:0px" />
    <path
       class="cls-4"
       d="m 126.6481,218.45587 c 0,0.0635 -0.0529,0.11642 -0.11641,0.11642 -0.0635,0 -0.11642,-0.0529 -0.11642,-0.11642 0,-0.0635 0.0529,-0.11641 0.11642,-0.11641 0.0635,0 0.11641,0.0529 0.11641,0.11641 z"
       id="path51"
       style="fill:#ffffff;stroke-width:0px" />
    <path
       class="cls-4"
       d="m 129.42887,219.5486 c -0.003,0.0635 -0.0582,0.11377 -0.1217,0.11113 -0.0635,0 -0.11378,-0.0582 -0.11113,-0.12171 0,-0.0635 0.0582,-0.11377 0.12171,-0.11112 0.0635,0.003 0.11377,0.0582 0.11112,0.1217 z"
       id="path52"
       style="fill:#ffffff;stroke-width:0px" />
    <path
       class="cls-4"
       d="m 123.571,224.56246 c 0.045,0.0635 0.0688,0.13494 0.0661,0.20637 0,0.082 -0.0264,0.14817 -0.17462,0.24871 l -0.42069,0.30163 -0.0767,-0.11113 c 0,0 0.43127,-0.30692 0.43921,-0.31221 0.0741,-0.0503 0.10583,-0.09 0.10583,-0.14816 0,-0.037 -0.0132,-0.0794 -0.0397,-0.11642 -0.0423,-0.0608 -0.0953,-0.0794 -0.14288,-0.0794 -0.0423,0 -0.09,0.0291 -0.17198,0.0873 l -0.39687,0.26987 -0.0767,-0.10848 0.37835,-0.25664 c 0.10584,-0.0741 0.18786,-0.12436 0.26723,-0.12436 0.11377,0 0.19579,0.0741 0.24606,0.14817 z"
       id="path53"
       style="fill:#ffffff;stroke-width:0px" />
    <path
       class="cls-4"
       d="m 122.22162,223.7396 0.80169,-0.28045 0.045,0.1217 -0.45773,0.56092 0.57944,-0.23019 0.0423,0.11907 -0.79375,0.30427 -0.045,-0.12171 0.46038,-0.56092 -0.59267,0.20638 -0.0423,-0.11907 z"
       id="path54"
       style="fill:#ffffff;stroke-width:0px" />
    <path
       class="cls-4"
       d="m 122.10256,223.09931 0.83873,-0.12435 0.0212,0.13494 -0.83873,0.12435 z"
       id="path55"
       style="fill:#ffffff;stroke-width:0px" />
    <path
       class="cls-4"
       d="m 122.07875,222.0886 v -0.14023 c 0,0 0.84137,0.34132 0.84137,0.34132 l -0.005,0.14023 -0.85989,0.25664 v -0.14023 c 0,0 0.6985,-0.19579 0.6985,-0.19579 l -0.67469,-0.25929 z"
       id="path56"
       style="fill:#ffffff;stroke-width:0px" />
    <path
       class="cls-4"
       d="m 122.8434,220.1889 c -0.11907,0 -0.17463,0.0688 -0.25136,0.20637 l -0.10054,0.17992 0.74877,0.40481 0.0635,-0.11642 -0.30956,-0.16933 0.0185,-0.0344 c 0.0529,-0.0952 0.0714,-0.10848 0.20373,-0.0979 l 0.24341,0.0212 0.0688,-0.12435 -0.27782,-0.0238 c -0.0556,-0.005 -0.10054,-0.0106 -0.13493,0 -0.0132,0.003 -0.0265,0.0106 -0.0397,0.0212 0.003,-0.0159 0.008,-0.0291 0.008,-0.045 0,-0.0238 -0.003,-0.0476 -0.0106,-0.0688 -0.0159,-0.0503 -0.0529,-0.09 -0.10583,-0.11906 -0.0397,-0.0212 -0.0794,-0.0344 -0.12171,-0.0344 z m -0.15082,0.25664 c 0.0503,-0.09 0.0847,-0.12435 0.13759,-0.12435 0.0185,0 0.045,0.005 0.0688,0.0185 0.0318,0.0185 0.0556,0.0476 0.0661,0.0794 0.003,0.0132 0.005,0.0238 0.005,0.037 0,0.0503 -0.0291,0.10055 -0.0582,0.15346 l -0.0185,0.0318 -0.23813,-0.12964 z"
       id="path57"
       style="fill:#ffffff;stroke-width:0px" />
    <path
       class="cls-4"
       d="m 123.77473,218.98769 0.10848,-0.082 0.51593,0.67468 -0.10847,0.082 z"
       id="path58"
       style="fill:#ffffff;stroke-width:0px" />
    <path
       class="cls-4"
       d="m 124.24039,218.65696 0.55034,-0.28575 0.0529,0.10319 -0.21431,0.11112 0.33867,0.65088 -0.12171,0.0635 -0.33867,-0.65088 -0.21431,0.11113 z"
       id="path59"
       style="fill:#ffffff;stroke-width:0px" />
    <path
       class="cls-4"
       d="m 125.61094,218.11456 0.14287,-0.0397 -0.11642,0.56886 0.0926,0.32279 -0.12965,0.037 -0.09,-0.32014 -0.40216,-0.42069 0.14023,-0.0397 0.29104,0.30163 0.0741,-0.41011 z"
       id="path60"
       style="fill:#ffffff;stroke-width:0px" />
    <path
       class="cls-4"
       d="m 128.20121,219.27344 0.43127,-0.73025 0.40481,0.23812 -0.0582,0.10054 -0.28839,-0.17198 -0.11907,0.20109 0.27252,0.16139 -0.0582,0.0979 -0.27252,-0.1614 -0.1958,0.33073 -0.11641,-0.0688 z"
       id="path61"
       style="fill:#ffffff;stroke-width:0px" />
    <path
       class="cls-4"
       d="m 130.38137,221.16521 0.30957,-0.37042 0.0476,0.14552 -0.23019,0.26459 0.34132,0.0767 0.045,0.13759 -0.46832,-0.11377 -0.33337,0.39952 -0.0476,-0.14288 0.25136,-0.29104 -0.37571,-0.0847 -0.045,-0.14022 0.50271,0.1217 z"
       id="path62"
       style="fill:#ffffff;stroke-width:0px" />
    <path
       class="cls-4"
       d="m 130.13796,221.99865 0.84666,-0.0688 0.037,0.46832 -0.11642,0.0106 -0.0265,-0.33602 -0.23283,0.0185 0.0265,0.31485 -0.11378,0.008 -0.0264,-0.31485 -0.38365,0.0318 -0.0106,-0.13494 z"
       id="path63"
       style="fill:#ffffff;stroke-width:0px" />
    <path
       class="cls-4"
       d="m 130.51367,222.75535 c -0.0979,0 -0.18786,0.0265 -0.2593,0.0794 -0.127,0.0926 -0.15081,0.22754 -0.15081,0.30427 0,0.28575 0.26988,0.40217 0.47096,0.40217 0.0979,0 0.18521,-0.0265 0.25665,-0.0767 0.14287,-0.10319 0.15081,-0.25929 0.15081,-0.30957 0,-0.25135 -0.23019,-0.39687 -0.46831,-0.39687 z m 0.0661,0.64823 c -0.16404,0 -0.35719,-0.09 -0.35719,-0.25664 0,-0.0609 0.0212,-0.14023 0.0952,-0.19579 0.0503,-0.0371 0.11642,-0.0556 0.1905,-0.0556 0.0847,0 0.23548,0.0238 0.31486,0.13494 0.0265,0.037 0.0423,0.082 0.0423,0.12965 0,0.0661 -0.0265,0.14287 -0.0952,0.19314 -0.0503,0.037 -0.11377,0.0529 -0.18785,0.0529 z"
       id="path64"
       style="fill:#ffffff;stroke-width:0px" />
    <path
       class="cls-4"
       d="m 130.02154,219.9296 c -0.0847,0 -0.17727,0.0265 -0.26458,0.082 -0.16404,0.10319 -0.22225,0.25136 -0.22225,0.35984 0,0.0688 0.0185,0.13758 0.0582,0.20108 0.09,0.14288 0.22754,0.17727 0.3175,0.17727 0.0873,0 0.17991,-0.0291 0.26722,-0.0847 0.10584,-0.0662 0.22225,-0.1905 0.22225,-0.35719 0,-0.0688 -0.0212,-0.13759 -0.0608,-0.20109 -0.0741,-0.11641 -0.1905,-0.17727 -0.32015,-0.17727 z m -0.13229,0.69321 c -0.0767,0 -0.14552,-0.0317 -0.19315,-0.10583 -0.0238,-0.037 -0.037,-0.0794 -0.037,-0.12171 0,-0.0953 0.0609,-0.19315 0.17198,-0.26458 0.0741,-0.0476 0.14552,-0.0688 0.21167,-0.0688 0.082,0 0.14816,0.037 0.19314,0.10583 0.0265,0.0423 0.037,0.0847 0.037,0.12964 0,0.0926 -0.0582,0.18521 -0.16668,0.254 -0.0767,0.0476 -0.15082,0.0741 -0.21696,0.0741 z"
       id="path65"
       style="fill:#ffffff;stroke-width:0px" />
    <path
       class="cls-4"
       d="m 127.70379,218.18071 c -0.17727,0 -0.33073,0.11906 -0.39423,0.33073 -0.0132,0.0476 -0.0238,0.0926 -0.0238,0.13758 0,0.0847 0.0132,0.15081 0.0476,0.21431 0.0794,0.14288 0.22225,0.19315 0.33073,0.19315 0.0609,0 0.12171,-0.0132 0.17463,-0.045 0.14287,-0.0794 0.23812,-0.25929 0.23812,-0.43392 0,-0.0767 -0.0159,-0.14552 -0.0476,-0.20637 -0.0688,-0.12436 -0.19579,-0.19315 -0.33073,-0.19315 z m -0.0423,0.75935 c -0.0609,0 -0.15082,-0.0291 -0.20109,-0.12171 -0.0238,-0.045 -0.0344,-0.0979 -0.0344,-0.15345 0,-0.15082 0.10054,-0.36513 0.28575,-0.36513 0.10319,0 0.23548,0.0767 0.23548,0.26988 0,0.1217 -0.0873,0.36777 -0.28575,0.36777 z"
       id="path66"
       style="fill:#ffffff;stroke-width:0px" />
    <path
       class="cls-4"
       d="m 123.00215,221.26046 0.11377,0.0318 -0.12965,0.46566 -0.82285,-0.22489 0.14023,-0.47096 0.11112,0.0318 -0.10319,0.33867 0.22754,0.0635 0.0873,-0.30957 0.10848,0.0317 -0.0873,0.30692 0.25665,0.0714 0.0952,-0.33602 z"
       id="path67"
       style="fill:#ffffff;stroke-width:0px" />
    <path
       class="cls-4"
       d="m 123.21646,219.48775 c 0.11906,-0.13229 0.23812,-0.12435 0.23812,-0.12435 l 0.0212,0.11112 c 0,0 -0.0926,0.003 -0.16669,0.0847 -0.0318,0.0344 -0.0476,0.0714 -0.0476,0.10583 0,0.0265 0.0106,0.0503 0.0318,0.0714 0.0582,0.0529 0.15875,-0.005 0.22225,-0.0317 0.0476,-0.0212 0.11641,-0.0476 0.1852,-0.0476 0.0503,0 0.10319,0.0159 0.15346,0.0582 0.0556,0.0503 0.0847,0.11377 0.0847,0.17992 0,0.0714 -0.0291,0.13494 -0.0847,0.19844 -0.10848,0.1217 -0.254,0.13493 -0.254,0.13493 l -0.0291,-0.11377 c 0.0847,-0.0185 0.15081,-0.0529 0.1905,-0.0979 0.0318,-0.0344 0.045,-0.0741 0.045,-0.10848 0,-0.0318 -0.0132,-0.0609 -0.0397,-0.0847 -0.0212,-0.0185 -0.0476,-0.0265 -0.0741,-0.0265 -0.0556,0 -0.11907,0.0317 -0.17463,0.0529 -0.10319,0.0423 -0.21166,0.0767 -0.30956,-0.0106 -0.0503,-0.045 -0.0767,-0.10055 -0.0767,-0.1614 0,-0.0661 0.0265,-0.13494 0.082,-0.19579 z"
       id="path68"
       style="fill:#ffffff;stroke-width:0px" />
    <path
       class="cls-4"
       d="m 129.91306,223.85602 0.32015,0.14552 -0.0159,0.037 c -0.045,0.0979 -0.0609,0.11377 -0.19314,0.11642 h -0.24342 c 0,0 -0.0582,0.13229 -0.0582,0.13229 h 0.28046 c 0.0556,0 0.10054,0 0.13494,-0.0132 0.0106,-0.005 0.0238,-0.0106 0.0344,-0.0212 0,0.008 -0.003,0.0132 -0.003,0.0212 0,0.0318 0.005,0.0609 0.0185,0.09 0.037,0.09 0.14287,0.13229 0.2196,0.13229 0.13494,0 0.18786,-0.082 0.25136,-0.23019 0,-0.005 0.0794,-0.18256 0.0794,-0.18256 l -0.77258,-0.3466 -0.0529,0.12171 z m 0.50271,0.50271 c -0.037,0 -0.10319,-0.0212 -0.127,-0.0847 -0.005,-0.0159 -0.008,-0.0317 -0.008,-0.0476 0,-0.0476 0.0238,-0.0952 0.045,-0.14552 l 0.0132,-0.0317 0.24606,0.11112 -0.0265,0.0661 c -0.045,0.10318 -0.0741,0.13758 -0.14022,0.13758 z"
       id="path69"
       style="fill:#ffffff;stroke-width:0px" />
    <path
       class="cls-4"
       d="m 129.46592,224.65771 c -0.0873,0.11112 -0.15611,0.20902 -0.15611,0.33602 0,0.10848 0.0503,0.23019 0.17198,0.33073 0.082,0.0661 0.17463,0.10054 0.27252,0.10054 0.11906,0 0.21167,-0.0344 0.35983,-0.2196 l 0.13494,-0.16934 -0.6641,-0.52916 z m 0.30427,0.64029 c -0.0688,0 -0.12965,-0.0265 -0.1958,-0.0794 -0.0661,-0.0529 -0.13758,-0.13758 -0.13758,-0.24341 0,-0.0741 0.0397,-0.14288 0.10054,-0.22225 l 0.0556,-0.0714 0.48418,0.38629 -0.037,0.0476 c -0.09,0.11377 -0.15081,0.17991 -0.27252,0.17991 z"
       id="path70"
       style="fill:#ffffff;stroke-width:0px" />
    <path
       class="cls-4"
       d="m 131.40002,222.51194 c 0,-2.67759 -2.18281,-4.85511 -4.86304,-4.85511 -2.68023,0 -4.86304,2.17752 -4.86304,4.85511 0,1.60602 0.79375,3.10356 2.12195,4.01108 0.12965,0.48683 0.5768,0.84667 1.10596,0.84667 0.14288,0 0.28311,-0.0265 0.41275,-0.0767 0.17727,0.0582 0.36248,0.10848 0.54504,0.14552 -0.0503,0.14817 -0.127,0.28839 -0.19843,0.40746 0,0 0,0 0.003,0 0,0 -0.003,0 -0.005,0 l 0.10054,0.10054 c 0.0265,-0.0132 0.0556,-0.0238 0.0873,-0.0238 0.10054,0 0.18256,0.082 0.18256,0.18256 0,0.10054 -0.082,0.18256 -0.18256,0.18256 -0.0873,0 -0.16405,-0.0556 -0.20373,-0.11642 0,0 -0.0238,0.082 -0.0238,0.1905 0,0.34925 0.381,0.74613 0.90752,0.91546 0.52653,-0.16404 0.90753,-0.56621 0.90753,-0.91546 0,-0.11906 -0.0238,-0.1905 -0.0238,-0.1905 -0.0397,0.0476 -0.10583,0.11642 -0.20637,0.11642 -0.10054,0 -0.18256,-0.082 -0.18256,-0.18256 0,-0.10054 0.082,-0.18256 0.18256,-0.18256 0.0344,0 0.0688,0.0106 0.0953,0.0291 l 0.0979,-0.0979 c 0,0 0.003,0 0.003,0 -0.0556,-0.13229 -0.0952,-0.254 -0.12435,-0.37306 0.87577,-0.11906 1.61131,-0.48683 2.19868,-1.10596 v 0 c 1.21973,-0.92868 1.92088,-2.33627 1.92088,-3.86556 z m -6.49817,4.72016 c -0.55298,0 -1.00012,-0.44979 -1.00012,-1.00541 0,-0.17463 0.045,-0.33602 0.12171,-0.4789 0.0503,0.0476 0.10583,0.0952 0.16404,0.14552 -0.0476,0.10319 -0.0767,0.21696 -0.0767,0.33867 0,0.30162 0.15081,0.55033 0.43921,0.71967 0.16404,0.0979 0.35189,0.1852 0.55033,0.26193 -0.0635,0.0132 -0.12965,0.0185 -0.19579,0.0185 z m 1.63513,-1.4605 c -0.20902,0 -0.41275,-0.0212 -0.61384,-0.0582 -0.19314,-0.381 -0.59266,-0.62442 -1.02129,-0.62442 -0.10583,0 -0.20637,0.0159 -0.30427,0.0423 -0.8255,-0.61383 -1.31762,-1.59014 -1.31762,-2.61937 0,-1.79652 1.46314,-3.25967 3.25966,-3.25967 1.79652,0 3.25967,1.46315 3.25967,3.25967 0,1.79652 -1.46315,3.25966 -3.25967,3.25966 z m 0.72496,0.0582 c -0.0979,0.14023 -0.15611,0.33338 -0.17198,0.52917 -0.30957,-0.0794 -0.58738,-0.18521 -0.83344,-0.29633 0.0476,-0.09 0.17992,-0.15346 0.28046,-0.15346 0.24871,0 0.49212,-0.0265 0.72496,-0.0794 z m -1.03188,0.0635 c -0.0423,0.0317 -0.0741,0.0688 -0.0979,0.10848 -0.12436,-0.0608 -0.27782,-0.13758 -0.37836,-0.19314 0.14288,0.0317 0.33073,0.0714 0.47625,0.0847 z m -1.32821,-0.66939 c 0.33602,0 0.64823,0.17198 0.83344,0.44714 -0.1614,-0.0397 -0.32015,-0.0953 -0.4736,-0.15875 v 0 c 0,0 -0.005,0 -0.005,0 -0.10847,-0.0503 -0.22225,-0.0767 -0.34395,-0.0767 -0.26723,0 -0.50271,0.13229 -0.65088,0.33073 -0.0609,-0.0344 -0.12171,-0.0688 -0.18256,-0.10848 0.17992,-0.26193 0.48154,-0.43391 0.82285,-0.43391 z m 2.30717,2.56116 c -0.17992,0 -0.32544,0.127 -0.32544,0.32279 0,0.1958 0.14817,0.3228 0.32544,0.3228 0.0265,0 0.0529,-0.005 0.0767,-0.0106 -0.037,0.26988 -0.3519,0.5715 -0.75671,0.70644 -0.40217,-0.13494 -0.71702,-0.43921 -0.75671,-0.70644 0.0238,0.005 0.0503,0.0106 0.0767,0.0106 0.19315,0 0.32544,-0.13494 0.32544,-0.3228 0,-0.18785 -0.14023,-0.3175 -0.32015,-0.32014 0.0556,-0.10054 0.10848,-0.20638 0.14552,-0.32015 0.22225,0.0397 0.44186,0.0609 0.64559,0.0609 0.16668,0 0.33073,-0.008 0.48948,-0.0265 0.0212,0.0926 0.0529,0.18785 0.09,0.28839 -0.005,0 -0.0132,0 -0.0185,0 z m -0.56092,-0.39687 c -0.65087,0 -1.46579,-0.22225 -2.02406,-0.55034 -0.16933,-0.10054 -0.37042,-0.28575 -0.37042,-0.60325 0,-0.0847 0.0159,-0.16668 0.0476,-0.24341 0.20902,0.17198 0.42333,0.33337 0.56092,0.40746 0.0317,0.0159 0.0503,0.0264 0.0847,0.0264 0.0873,0 0.15611,-0.0714 0.15611,-0.15875 0,-0.0661 -0.0371,-0.1217 -0.0953,-0.14552 -0.11642,-0.0503 -0.35719,-0.15081 -0.61913,-0.28575 0.12171,-0.15875 0.30956,-0.26193 0.52388,-0.26193 0.0979,0 0.19314,0.0212 0.28045,0.0635 l 0.17992,0.10318 c 0.56886,0.34661 2.02936,1.23825 3.79677,0.74877 -0.66939,0.6059 -1.49489,0.90223 -2.51619,0.90223 z m 2.73844,-1.1139 c -0.7911,0.28046 -1.52665,0.25929 -2.15635,0.11906 0.0212,-0.28045 0.13758,-0.58208 0.31485,-0.63764 1.38642,-0.42863 2.39448,-1.72244 2.39448,-3.24379 0,-1.87325 -1.52665,-3.39725 -3.40254,-3.39725 -1.8759,0 -3.40254,1.524 -3.40254,3.39725 0,1.04246 0.48683,2.032 1.30704,2.67229 -0.19579,0.0847 -0.35984,0.22489 -0.48154,0.39687 -0.0609,-0.0423 -0.12171,-0.0873 -0.17727,-0.13229 l -0.0318,0.0317 c 0.037,0.045 0.0953,0.10319 0.16404,0.16934 -0.10054,0.16933 -0.15875,0.36777 -0.15875,0.57943 0,0.0317 0,0.0661 0.005,0.0979 -1.21973,-0.889 -1.94204,-2.30188 -1.94204,-3.81529 0,-2.6035 2.11666,-4.72017 4.72016,-4.72017 2.6035,0 4.72017,2.11667 4.72017,4.72017 0,1.4896 -0.68262,2.86014 -1.8706,3.76237 z"
       id="path71"
       style="fill:#ffffff;stroke-width:0px" />
    <path
       class="cls-4"
       d="m 133.48229,216.027 v 23.81779 H 109.6645 V 216.027 h 23.81779 m 0.12435,-0.127 H 109.5375 v 24.06915 h 24.06914 z"
       id="path90"
       style="fill:#ffffff;stroke-width:0px" />
  </g>
</svg>
