<?xml version="1.0" encoding="UTF-8" standalone="no"?>
<svg class="icon icon--logo-wellbeing" viewBox="0 0 116 116" xmlns="http://www.w3.org/2000/svg">
    <defs>
        <style>
            .wellbeing-ac {
            fill: #fff
            }</style>
    </defs>
    <path d="M52.73 105.45H10.55V116H116V10.55h-10.55v42.18c0 29.12-23.61 52.73-52.73 52.73" style="fill:#537cb1"></path>
    <path d="M10.55 105.45V63.27c0-29.12 23.61-52.73 52.73-52.73h42.18V0H0v105.45h10.55Z" style="fill:#aac8de"></path>
    <path d="M10.55 63.27v42.18h42.18c29.12 0 52.73-23.61 52.73-52.73V10.55H63.27c-29.12 0-52.73 23.61-52.73 52.73" style="fill:#001733"></path>
    <path d="m29.78 40.77 1.71 7.05 2.03-7.05h1.38l2 7.05 1.75-7.05h1.47L37.7 50.4h-1.38l-2.13-7.05-2.2 7.05h-1.35l-2.38-9.63h1.5Z" class="wellbeing-ac"></path>
    <path d="M41.82 47.18c.15 1.53 1.03 2.21 2 2.21a1.9 1.9 0 0 0 1.61-.87l.88.77a3.11 3.11 0 0 1-2.55 1.3c-1.75 0-3.19-1.31-3.19-3.9s1.3-3.83 3.1-3.83 3.12 1.36 3.12 3.83c0 .18-.01.33-.03.49h-4.95Zm0-.99h3.74c-.15-1.41-.88-2.13-1.87-2.13s-1.74.77-1.88 2.13" class="wellbeing-ac"></path>
    <path d="M49.97 40.12V50.4h-1.32v-9.84l1.32-.45Z" class="wellbeing-ac"></path>
    <path d="M53.41 40.12V50.4h-1.32v-9.84l1.32-.45Z" class="wellbeing-ac"></path>
    <path d="M56.85 40.12v3.77c.52-.66 1.31-1.04 2.14-1.03 2.05 0 2.81 1.96 2.81 3.87s-.77 3.85-2.81 3.85c-.88.01-1.7-.4-2.21-1.11v.93h-1.25v-9.83l1.32-.46Zm0 5.15v2.89c.31.73 1.03 1.2 1.82 1.2 1.41 0 1.87-1.25 1.87-2.64s-.46-2.64-1.85-2.64c-.79 0-1.51.47-1.84 1.2" class="wellbeing-ac"></path>
    <path d="M64.62 47.18c.15 1.53 1.03 2.21 2 2.21a1.9 1.9 0 0 0 1.61-.87l.88.77a3.11 3.11 0 0 1-2.55 1.3c-1.75 0-3.19-1.31-3.19-3.9s1.3-3.83 3.1-3.83 3.12 1.36 3.12 3.83c0 .18-.01.33-.03.49h-4.95Zm0-.99h3.74c-.15-1.41-.88-2.13-1.87-2.13s-1.74.77-1.88 2.13" class="wellbeing-ac"></path>
    <path d="M72.88 41.03c.02.42-.29.77-.71.8h-.06c-.41 0-.75-.32-.75-.73v-.07a.73.73 0 0 1 .67-.79h.08c.41-.01.75.31.77.72v.07m-.1 9.38h-1.32v-7.36h1.32v7.36Z" class="wellbeing-ac"></path>
    <path d="M76.14 43.04v.9c.55-.72 1.42-1.12 2.32-1.09 1.49 0 2.52.82 2.52 2.88v4.66h-1.32v-4.52c0-1.28-.64-1.77-1.61-1.77-.84-.04-1.59.5-1.84 1.3v5h-1.32v-7.36h1.25Z" class="wellbeing-ac"></path>
    <path d="M89.06 43.04V49c0 2.67-1.21 3.76-4.02 4.3l-.15-1.18c2.06-.47 2.94-1.2 2.94-2.78v-.26c-.54.67-1.37 1.05-2.23 1.03-2.05 0-2.8-1.85-2.8-3.62s.75-3.62 2.8-3.62c.86-.02 1.69.37 2.23 1.04v-.86h1.24Zm-1.24 4.69v-2.48a2.054 2.054 0 0 0-1.89-1.2c-1.42 0-1.88 1.18-1.88 2.44s.46 2.45 1.86 2.45c.82 0 1.56-.47 1.91-1.21" class="wellbeing-ac"></path>
    <path d="M33.13 56.33c1.95 0 3.24.99 3.24 2.96.11 1.31-.75 2.5-2.02 2.81l2.48 3.86h-1.61l-2.31-3.7h-2.29v3.7H29.2v-9.63h3.93Zm-2.52 4.7h2.55c1.11 0 1.87-.54 1.87-1.71s-.75-1.69-1.87-1.69h-2.55v3.41Z" class="wellbeing-ac"></path>
    <path d="M38.76 62.73c.15 1.53 1.03 2.21 2 2.21.65 0 1.25-.32 1.61-.86l.88.77a3.11 3.11 0 0 1-2.55 1.3c-1.75 0-3.19-1.31-3.19-3.9s1.3-3.83 3.1-3.83 3.12 1.36 3.12 3.83c0 .18-.01.33-.03.49h-4.95Zm0-.99h3.74c-.15-1.41-.88-2.13-1.87-2.13s-1.74.77-1.88 2.13" class="wellbeing-ac"></path>
    <path d="M50.15 60.53c-.6-.6-1.41-.94-2.25-.93-.93 0-1.38.4-1.38.9 0 .38.24.6.63.77.65.28 1.73.45 2.55.85.7.27 1.15.96 1.11 1.71 0 1.73-1.47 2.31-2.94 2.31-1.08.04-2.14-.33-2.96-1.04l.52-1.11c.67.6 1.54.93 2.44.93.95 0 1.64-.38 1.64-1.09 0-.4-.24-.64-.8-.86-.8-.32-1.82-.5-2.45-.81-.65-.28-1.06-.92-1.04-1.63 0-1.35 1.17-2.12 2.74-2.12.99-.03 1.95.32 2.69.97l-.49 1.14Z" class="wellbeing-ac"></path>
    <path d="M53.19 62.73c.15 1.53 1.03 2.21 2 2.21.65 0 1.25-.32 1.61-.86l.88.77a3.11 3.11 0 0 1-2.55 1.3c-1.75 0-3.19-1.31-3.19-3.9s1.3-3.83 3.1-3.83 3.12 1.36 3.12 3.83c0 .18-.01.33-.03.49h-4.95Zm0-.99h3.74c-.15-1.41-.88-2.13-1.87-2.13s-1.74.77-1.88 2.13" class="wellbeing-ac"></path>
    <path d="M60.18 59.19c.77-.54 1.69-.81 2.63-.78 1.67 0 2.85.7 2.85 2.87v4.68h-1.22v-.53c-.65.42-1.4.63-2.17.63-1.47 0-2.64-.75-2.64-2.37s1.18-2.46 2.81-2.46c.66 0 1.32.13 1.93.39v-.25c0-1.31-.65-1.69-1.71-1.69a3.31 3.31 0 0 0-1.95.58l-.53-1.06Zm4.19 5.33v-2.04c-.52-.18-1.06-.27-1.61-.28-1.06 0-1.88.43-1.88 1.42s.75 1.34 1.68 1.34c.63 0 1.25-.15 1.81-.43" class="wellbeing-ac"></path>
    <path d="M71.9 60.03a1.42 1.42 0 0 0-1.06-.36c-.83-.03-1.58.52-1.79 1.32v4.97h-1.32V58.6h1.26v.89a2.51 2.51 0 0 1 2.12-1.07c.47-.03.94.13 1.3.45l-.49 1.17Z" class="wellbeing-ac"></path>
    <path d="M78.2 60.72c-.27-.67-.92-1.1-1.64-1.09-1.13 0-2.03.88-2.03 2.64s.9 2.63 1.96 2.63c.71 0 1.36-.4 1.68-1.03l.95.7c-.55.97-1.58 1.56-2.7 1.56-1.75 0-3.19-1.34-3.19-3.87s1.43-3.85 3.33-3.85c1.1-.08 2.14.53 2.6 1.53l-.96.78Z" class="wellbeing-ac"></path>
    <path d="M81.89 55.67v3.74c.55-.67 1.39-1.04 2.25-1 1.49 0 2.52.82 2.52 2.88v4.66h-1.32v-4.52c0-1.28-.64-1.77-1.61-1.77-.84-.04-1.59.5-1.84 1.3v5h-1.33v-9.84l1.33-.45Z" class="wellbeing-ac"></path>
    <path d="M35.73 74.6c-.43-.98-1.41-1.6-2.48-1.59-1.74 0-2.89 1.25-2.89 3.69s1.15 3.67 2.89 3.67c1.02.02 1.97-.56 2.42-1.48l1.06.77a3.864 3.864 0 0 1-3.51 2.02c-2.45 0-4.28-1.71-4.28-5s1.82-5 4.31-5a3.68 3.68 0 0 1 3.51 2.13l-1.03.78Z" class="wellbeing-ac"></path>
    <path d="M39.04 78.28c.15 1.53 1.03 2.21 2 2.21.65 0 1.25-.32 1.61-.86l.88.77a3.11 3.11 0 0 1-2.55 1.3c-1.75 0-3.19-1.31-3.19-3.9s1.3-3.83 3.1-3.83 3.12 1.36 3.12 3.83c0 .18-.01.33-.03.49h-4.95Zm0-.99h3.74c-.15-1.41-.88-2.13-1.87-2.13s-1.74.77-1.88 2.13" class="wellbeing-ac"></path>
    <path d="M47.12 74.14v.9c.55-.72 1.42-1.12 2.32-1.09 1.49 0 2.52.82 2.52 2.88v4.66h-1.32v-4.52c0-1.28-.64-1.77-1.61-1.77-.84-.03-1.59.5-1.84 1.3v5h-1.32v-7.36h1.25Z" class="wellbeing-ac"></path>
    <path d="M54.1 74.15v-1.99l1.32-.43v2.42h1.88v1.09h-1.88v4.18c-.06.43.24.83.67.89h.19c.4 0 .78-.16 1.06-.45l-.22 1.21c-.37.34-.86.53-1.36.52-.91 0-1.66-.72-1.67-1.64 0-.08 0-.16.02-.24v-4.47h-.84v-1.09h.84Z" class="wellbeing-ac"></path>
    <path d="M62.83 75.58a1.42 1.42 0 0 0-1.06-.36c-.83-.03-1.58.52-1.79 1.32v4.97h-1.32v-7.36h1.25v.89c.48-.69 1.27-1.09 2.11-1.07.47-.03.94.13 1.3.45l-.49 1.17Z" class="wellbeing-ac"></path>
    <path d="M65.4 78.28c.15 1.53 1.03 2.21 2 2.21.65 0 1.25-.32 1.61-.86l.88.77a3.11 3.11 0 0 1-2.55 1.3c-1.75 0-3.19-1.31-3.19-3.9s1.3-3.83 3.1-3.83 3.12 1.36 3.12 3.83c0 .18-.01.33-.03.49h-4.95Zm0-.99h3.74c-.15-1.41-.88-2.13-1.87-2.13s-1.74.77-1.88 2.13" class="wellbeing-ac"></path>
</svg>